<svg width="868" height="263" viewBox="0 0 868 263" fill="none" xmlns="http://www.w3.org/2000/svg">
<g filter="url(#filter0_d_131_748)">
<path d="M38.6172 15.0078H32.5234C32.2891 13.7057 31.8529 12.5599 31.2148 11.5703C30.5768 10.5807 29.7956 9.74088 28.8711 9.05078C27.9466 8.36068 26.9115 7.83984 25.7656 7.48828C24.6328 7.13672 23.4284 6.96094 22.1523 6.96094C19.8477 6.96094 17.7839 7.54036 15.9609 8.69922C14.151 9.85807 12.7188 11.5573 11.6641 13.7969C10.6224 16.0365 10.1016 18.7708 10.1016 22C10.1016 25.2552 10.6224 28.0026 11.6641 30.2422C12.7188 32.4818 14.1576 34.1745 15.9805 35.3203C17.8034 36.4661 19.8542 37.0391 22.1328 37.0391C23.3958 37.0391 24.5938 36.8698 25.7266 36.5312C26.8724 36.1797 27.9076 35.6654 28.832 34.9883C29.7565 34.3112 30.5378 33.4844 31.1758 32.5078C31.8268 31.5182 32.276 30.3854 32.5234 29.1094L38.6172 29.1289C38.2917 31.0951 37.6602 32.9049 36.7227 34.5586C35.7982 36.1992 34.6068 37.6185 33.1484 38.8164C31.7031 40.0013 30.0495 40.9193 28.1875 41.5703C26.3255 42.2214 24.2943 42.5469 22.0938 42.5469C18.6302 42.5469 15.5443 41.7266 12.8359 40.0859C10.1276 38.4323 7.99219 36.069 6.42969 32.9961C4.88021 29.9232 4.10547 26.2578 4.10547 22C4.10547 17.7292 4.88672 14.0638 6.44922 11.0039C8.01172 7.93099 10.1471 5.57422 12.8555 3.93359C15.5638 2.27995 18.6432 1.45312 22.0938 1.45312C24.2161 1.45312 26.1953 1.75911 28.0313 2.37109C29.8802 2.97005 31.5404 3.85547 33.0117 5.02734C34.4831 6.1862 35.7005 7.60547 36.6641 9.28515C37.6276 10.9518 38.2786 12.8594 38.6172 15.0078ZM64.374 29.5586V12H70.2334V42H64.4912V36.8047H64.1787C63.4886 38.4063 62.3818 39.7409 60.8584 40.8086C59.348 41.8633 57.4665 42.3906 55.2139 42.3906C53.2868 42.3906 51.5811 41.9674 50.0967 41.1211C48.6253 40.2617 47.4665 38.9922 46.6201 37.3125C45.7868 35.6328 45.3701 33.556 45.3701 31.082V12H51.21V30.3789C51.21 32.4232 51.7764 34.0508 52.9092 35.2617C54.042 36.4727 55.5133 37.0781 57.3232 37.0781C58.417 37.0781 59.5042 36.8047 60.585 36.2578C61.6787 35.7109 62.5837 34.8841 63.2998 33.7773C64.029 32.6706 64.387 31.2643 64.374 29.5586ZM100.561 19.3242L95.2676 20.2617C95.0462 19.5846 94.6947 18.9401 94.2129 18.3281C93.7441 17.7161 93.1061 17.2148 92.2988 16.8242C91.4915 16.4336 90.4824 16.2383 89.2715 16.2383C87.6178 16.2383 86.2376 16.6094 85.1309 17.3516C84.0241 18.0807 83.4707 19.0247 83.4707 20.1836C83.4707 21.1862 83.8418 21.9935 84.584 22.6055C85.3262 23.2174 86.5241 23.7187 88.1777 24.1094L92.9434 25.2031C95.7038 25.8411 97.7611 26.8242 99.1152 28.1523C100.469 29.4805 101.146 31.2057 101.146 33.3281C101.146 35.125 100.626 36.7266 99.584 38.1328C98.5553 39.526 97.1165 40.6198 95.2676 41.4141C93.4316 42.2083 91.3027 42.6055 88.8809 42.6055C85.5215 42.6055 82.7806 41.8893 80.6582 40.457C78.5358 39.0117 77.2337 36.9609 76.752 34.3047L82.3965 33.4453C82.748 34.9167 83.4707 36.0299 84.5645 36.7852C85.6582 37.5273 87.084 37.8984 88.8418 37.8984C90.7559 37.8984 92.2858 37.5013 93.4316 36.707C94.5775 35.8997 95.1504 34.9167 95.1504 33.7578C95.1504 32.8203 94.7988 32.0326 94.0957 31.3945C93.4056 30.7565 92.3444 30.2747 90.9121 29.9492L85.834 28.8359C83.0345 28.1979 80.9642 27.1823 79.623 25.7891C78.2949 24.3958 77.6309 22.6315 77.6309 20.4961C77.6309 18.7253 78.1257 17.1758 79.1152 15.8477C80.1048 14.5195 81.472 13.4844 83.2168 12.7422C84.9616 11.987 86.9603 11.6094 89.2129 11.6094C92.4551 11.6094 95.0072 12.3125 96.8691 13.7187C98.7311 15.112 99.9616 16.9805 100.561 19.3242ZM121.571 12V16.6875H105.185V12H121.571ZM109.579 4.8125H115.419V33.1914C115.419 34.3242 115.588 35.1771 115.927 35.75C116.265 36.3099 116.701 36.694 117.235 36.9023C117.782 37.0977 118.375 37.1953 119.013 37.1953C119.481 37.1953 119.892 37.1628 120.243 37.0977C120.595 37.0326 120.868 36.9805 121.063 36.9414L122.118 41.7656C121.78 41.8958 121.298 42.026 120.673 42.1563C120.048 42.2995 119.267 42.3776 118.329 42.3906C116.793 42.4167 115.36 42.1432 114.032 41.5703C112.704 40.9974 111.63 40.112 110.81 38.9141C109.989 37.7161 109.579 36.2122 109.579 34.4023V4.8125ZM140.346 42.6055C137.533 42.6055 135.079 41.9609 132.982 40.6719C130.886 39.3828 129.258 37.5794 128.1 35.2617C126.941 32.944 126.361 30.2357 126.361 27.1367C126.361 24.0247 126.941 21.3034 128.1 18.9727C129.258 16.6419 130.886 14.832 132.982 13.543C135.079 12.2539 137.533 11.6094 140.346 11.6094C143.158 11.6094 145.613 12.2539 147.709 13.543C149.805 14.832 151.433 16.6419 152.592 18.9727C153.751 21.3034 154.33 24.0247 154.33 27.1367C154.33 30.2357 153.751 32.944 152.592 35.2617C151.433 37.5794 149.805 39.3828 147.709 40.6719C145.613 41.9609 143.158 42.6055 140.346 42.6055ZM140.365 37.7031C142.188 37.7031 143.699 37.2214 144.896 36.2578C146.094 35.2943 146.98 34.0117 147.553 32.4102C148.139 30.8086 148.432 29.0443 148.432 27.1172C148.432 25.2031 148.139 23.4453 147.553 21.8437C146.98 20.2292 146.094 18.9336 144.896 17.957C143.699 16.9805 142.188 16.4922 140.365 16.4922C138.529 16.4922 137.006 16.9805 135.795 17.957C134.597 18.9336 133.705 20.2292 133.119 21.8437C132.546 23.4453 132.26 25.2031 132.26 27.1172C132.26 29.0443 132.546 30.8086 133.119 32.4102C133.705 34.0117 134.597 35.2943 135.795 36.2578C137.006 37.2214 138.529 37.7031 140.365 37.7031ZM160.849 42V12H166.454V16.8828H166.825C167.45 15.2292 168.472 13.9401 169.892 13.0156C171.311 12.0781 173.01 11.6094 174.989 11.6094C176.994 11.6094 178.674 12.0781 180.028 13.0156C181.396 13.9531 182.405 15.2422 183.056 16.8828H183.368C184.084 15.2812 185.224 14.0052 186.786 13.0547C188.349 12.0911 190.211 11.6094 192.372 11.6094C195.093 11.6094 197.313 12.4622 199.032 14.168C200.764 15.8737 201.63 18.4453 201.63 21.8828V42H195.79V22.4297C195.79 20.3984 195.237 18.9271 194.13 18.0156C193.023 17.1042 191.701 16.6484 190.165 16.6484C188.264 16.6484 186.786 17.2344 185.731 18.4062C184.677 19.5651 184.149 21.056 184.149 22.8789V42H178.329V22.0586C178.329 20.431 177.821 19.1224 176.806 18.1328C175.79 17.1432 174.468 16.6484 172.841 16.6484C171.734 16.6484 170.712 16.9414 169.774 17.5273C168.85 18.1003 168.101 18.901 167.528 19.9297C166.968 20.9583 166.688 22.1497 166.688 23.5039V42H160.849ZM222.387 42.6055C219.431 42.6055 216.885 41.974 214.75 40.7109C212.628 39.4349 210.987 37.6445 209.828 35.3398C208.682 33.0221 208.109 30.3073 208.109 27.1953C208.109 24.1224 208.682 21.4141 209.828 19.0703C210.987 16.7266 212.602 14.8971 214.672 13.582C216.755 12.2669 219.19 11.6094 221.977 11.6094C223.669 11.6094 225.31 11.8893 226.898 12.4492C228.487 13.0091 229.913 13.888 231.176 15.0859C232.439 16.2839 233.435 17.8398 234.164 19.7539C234.893 21.6549 235.258 23.9661 235.258 26.6875V28.7578H211.41V24.3828H229.535C229.535 22.8464 229.223 21.4857 228.598 20.3008C227.973 19.1029 227.094 18.1589 225.961 17.4687C224.841 16.7786 223.526 16.4336 222.016 16.4336C220.375 16.4336 218.943 16.8372 217.719 17.6445C216.508 18.4388 215.57 19.4805 214.906 20.7695C214.255 22.0456 213.93 23.4323 213.93 24.9297V28.3477C213.93 30.3529 214.281 32.0586 214.984 33.4648C215.701 34.8711 216.697 35.9453 217.973 36.6875C219.249 37.4167 220.74 37.7812 222.445 37.7812C223.552 37.7812 224.561 37.625 225.473 37.3125C226.384 36.987 227.172 36.5052 227.836 35.8672C228.5 35.2292 229.008 34.4414 229.359 33.5039L234.887 34.5C234.444 36.1276 233.65 37.5534 232.504 38.7773C231.371 39.9883 229.945 40.9323 228.227 41.6094C226.521 42.2734 224.574 42.6055 222.387 42.6055ZM241.737 42V12H247.382V16.7656H247.694C248.241 15.151 249.205 13.8815 250.585 12.957C251.978 12.0195 253.554 11.5508 255.312 11.5508C255.676 11.5508 256.106 11.5638 256.601 11.5898C257.108 11.6159 257.506 11.6484 257.792 11.6875V17.2734C257.558 17.2083 257.141 17.1367 256.542 17.0586C255.943 16.9674 255.344 16.9219 254.745 16.9219C253.365 16.9219 252.134 17.2148 251.054 17.8008C249.986 18.3737 249.14 19.1745 248.515 20.2031C247.89 21.2187 247.577 22.3776 247.577 23.6797V42H241.737ZM299.882 19.3242L294.589 20.2617C294.368 19.5846 294.016 18.9401 293.534 18.3281C293.065 17.7161 292.427 17.2148 291.62 16.8242C290.813 16.4336 289.804 16.2383 288.593 16.2383C286.939 16.2383 285.559 16.6094 284.452 17.3516C283.345 18.0807 282.792 19.0247 282.792 20.1836C282.792 21.1862 283.163 21.9935 283.905 22.6055C284.647 23.2174 285.845 23.7187 287.499 24.1094L292.265 25.2031C295.025 25.8411 297.082 26.8242 298.437 28.1523C299.791 29.4805 300.468 31.2057 300.468 33.3281C300.468 35.125 299.947 36.7266 298.905 38.1328C297.877 39.526 296.438 40.6198 294.589 41.4141C292.753 42.2083 290.624 42.6055 288.202 42.6055C284.843 42.6055 282.102 41.8893 279.979 40.457C277.857 39.0117 276.555 36.9609 276.073 34.3047L281.718 33.4453C282.069 34.9167 282.792 36.0299 283.886 36.7852C284.979 37.5273 286.405 37.8984 288.163 37.8984C290.077 37.8984 291.607 37.5013 292.753 36.707C293.899 35.8997 294.472 34.9167 294.472 33.7578C294.472 32.8203 294.12 32.0326 293.417 31.3945C292.727 30.7565 291.666 30.2747 290.233 29.9492L285.155 28.8359C282.356 28.1979 280.285 27.1823 278.944 25.7891C277.616 24.3958 276.952 22.6315 276.952 20.4961C276.952 18.7253 277.447 17.1758 278.437 15.8477C279.426 14.5195 280.793 13.4844 282.538 12.7422C284.283 11.987 286.282 11.6094 288.534 11.6094C291.776 11.6094 294.328 12.3125 296.19 13.7187C298.052 15.112 299.283 16.9805 299.882 19.3242ZM315.619 42.6641C313.718 42.6641 311.999 42.3125 310.463 41.6094C308.926 40.8932 307.709 39.8581 306.811 38.5039C305.925 37.1497 305.482 35.4896 305.482 33.5234C305.482 31.8307 305.808 30.4375 306.459 29.3437C307.11 28.25 307.989 27.3841 309.096 26.7461C310.202 26.1081 311.439 25.6263 312.807 25.3008C314.174 24.9753 315.567 24.7279 316.986 24.5586C318.783 24.3503 320.242 24.181 321.361 24.0508C322.481 23.9076 323.295 23.6797 323.803 23.3672C324.311 23.0547 324.564 22.5469 324.564 21.8437V21.707C324.564 20.0013 324.083 18.6797 323.119 17.7422C322.169 16.8047 320.749 16.3359 318.861 16.3359C316.895 16.3359 315.346 16.7721 314.213 17.6445C313.093 18.5039 312.318 19.4609 311.889 20.5156L306.4 19.2656C307.051 17.4427 308.002 15.9714 309.252 14.8516C310.515 13.7187 311.967 12.8984 313.607 12.3906C315.248 11.8698 316.973 11.6094 318.783 11.6094C319.981 11.6094 321.251 11.7526 322.592 12.0391C323.946 12.3125 325.209 12.8203 326.381 13.5625C327.566 14.3047 328.536 15.3659 329.291 16.7461C330.046 18.1133 330.424 19.8906 330.424 22.0781V42H324.721V37.8984H324.486C324.109 38.6536 323.542 39.3958 322.787 40.125C322.032 40.8542 321.062 41.4596 319.877 41.9414C318.692 42.4232 317.273 42.6641 315.619 42.6641ZM316.889 37.9766C318.503 37.9766 319.883 37.6576 321.029 37.0195C322.188 36.3815 323.067 35.5482 323.666 34.5195C324.278 33.4779 324.584 32.3646 324.584 31.1797V27.3125C324.376 27.5208 323.972 27.7161 323.373 27.8984C322.787 28.0677 322.117 28.2174 321.361 28.3477C320.606 28.4648 319.87 28.5755 319.154 28.6797C318.438 28.7708 317.839 28.849 317.357 28.9141C316.225 29.0573 315.189 29.2982 314.252 29.6367C313.327 29.9753 312.585 30.4635 312.025 31.1016C311.479 31.7266 311.205 32.5599 311.205 33.6016C311.205 35.0469 311.739 36.1406 312.807 36.8828C313.874 37.612 315.235 37.9766 316.889 37.9766ZM352.206 12V16.6875H335.819V12H352.206ZM340.214 4.8125H346.054V33.1914C346.054 34.3242 346.223 35.1771 346.562 35.75C346.9 36.3099 347.336 36.694 347.87 36.9023C348.417 37.0977 349.009 37.1953 349.647 37.1953C350.116 37.1953 350.526 37.1628 350.878 37.0977C351.229 37.0326 351.503 36.9805 351.698 36.9414L352.753 41.7656C352.414 41.8958 351.933 42.026 351.308 42.1563C350.683 42.2995 349.901 42.3776 348.964 42.3906C347.427 42.4167 345.995 42.1432 344.667 41.5703C343.339 40.9974 342.265 40.112 341.444 38.9141C340.624 37.7161 340.214 36.2122 340.214 34.4023V4.8125ZM358.666 42V12H364.506V42H358.666ZM361.615 7.37109C360.6 7.37109 359.727 7.03255 358.998 6.35547C358.282 5.66536 357.924 4.84505 357.924 3.89453C357.924 2.93099 358.282 2.11068 358.998 1.43359C359.727 0.743488 360.6 0.398437 361.615 0.398437C362.631 0.398437 363.497 0.743488 364.213 1.43359C364.942 2.11068 365.307 2.93099 365.307 3.89453C365.307 4.84505 364.942 5.66536 364.213 6.35547C363.497 7.03255 362.631 7.37109 361.615 7.37109ZM394.843 19.3242L389.55 20.2617C389.328 19.5846 388.977 18.9401 388.495 18.3281C388.026 17.7161 387.388 17.2148 386.581 16.8242C385.774 16.4336 384.765 16.2383 383.554 16.2383C381.9 16.2383 380.52 16.6094 379.413 17.3516C378.306 18.0807 377.753 19.0247 377.753 20.1836C377.753 21.1862 378.124 21.9935 378.866 22.6055C379.608 23.2174 380.806 23.7187 382.46 24.1094L387.226 25.2031C389.986 25.8411 392.043 26.8242 393.397 28.1523C394.752 29.4805 395.429 31.2057 395.429 33.3281C395.429 35.125 394.908 36.7266 393.866 38.1328C392.838 39.526 391.399 40.6198 389.55 41.4141C387.714 42.2083 385.585 42.6055 383.163 42.6055C379.804 42.6055 377.063 41.8893 374.94 40.457C372.818 39.0117 371.516 36.9609 371.034 34.3047L376.679 33.4453C377.03 34.9167 377.753 36.0299 378.847 36.7852C379.94 37.5273 381.366 37.8984 383.124 37.8984C385.038 37.8984 386.568 37.5013 387.714 36.707C388.86 35.8997 389.433 34.9167 389.433 33.7578C389.433 32.8203 389.081 32.0326 388.378 31.3945C387.688 30.7565 386.627 30.2747 385.194 29.9492L380.116 28.8359C377.317 28.1979 375.246 27.1823 373.905 25.7891C372.577 24.3958 371.913 22.6315 371.913 20.4961C371.913 18.7253 372.408 17.1758 373.397 15.8477C374.387 14.5195 375.754 13.4844 377.499 12.7422C379.244 11.987 381.243 11.6094 383.495 11.6094C386.737 11.6094 389.289 12.3125 391.151 13.7187C393.013 15.112 394.244 16.9805 394.843 19.3242ZM416.127 12V16.6875H399.174V12H416.127ZM403.822 42V8.52344C403.822 6.64844 404.232 5.09245 405.053 3.85547C405.873 2.60547 406.96 1.67448 408.314 1.0625C409.669 0.437498 411.14 0.124997 412.729 0.124997C413.9 0.124997 414.903 0.222654 415.736 0.417968C416.57 0.600259 417.188 0.76953 417.592 0.92578L416.225 5.65234C415.951 5.57422 415.6 5.48307 415.17 5.37891C414.74 5.26172 414.219 5.20312 413.607 5.20312C412.188 5.20312 411.173 5.55469 410.561 6.25781C409.962 6.96094 409.662 7.97656 409.662 9.30469V42H403.822ZM429.97 42.6641C428.069 42.6641 426.35 42.3125 424.813 41.6094C423.277 40.8932 422.06 39.8581 421.161 38.5039C420.276 37.1497 419.833 35.4896 419.833 33.5234C419.833 31.8307 420.159 30.4375 420.81 29.3437C421.461 28.25 422.34 27.3841 423.446 26.7461C424.553 26.1081 425.79 25.6263 427.157 25.3008C428.524 24.9753 429.918 24.7279 431.337 24.5586C433.134 24.3503 434.592 24.181 435.712 24.0508C436.832 23.9076 437.646 23.6797 438.153 23.3672C438.661 23.0547 438.915 22.5469 438.915 21.8437V21.707C438.915 20.0013 438.433 18.6797 437.47 17.7422C436.519 16.8047 435.1 16.3359 433.212 16.3359C431.246 16.3359 429.696 16.7721 428.563 17.6445C427.444 18.5039 426.669 19.4609 426.239 20.5156L420.751 19.2656C421.402 17.4427 422.353 15.9714 423.603 14.8516C424.866 13.7187 426.317 12.8984 427.958 12.3906C429.599 11.8698 431.324 11.6094 433.134 11.6094C434.332 11.6094 435.601 11.7526 436.942 12.0391C438.297 12.3125 439.56 12.8203 440.731 13.5625C441.916 14.3047 442.886 15.3659 443.642 16.7461C444.397 18.1133 444.774 19.8906 444.774 22.0781V42H439.071V37.8984H438.837C438.459 38.6536 437.893 39.3958 437.138 40.125C436.382 40.8542 435.412 41.4596 434.228 41.9414C433.043 42.4232 431.623 42.6641 429.97 42.6641ZM431.239 37.9766C432.854 37.9766 434.234 37.6576 435.38 37.0195C436.539 36.3815 437.418 35.5482 438.017 34.5195C438.629 33.4779 438.935 32.3646 438.935 31.1797V27.3125C438.726 27.5208 438.323 27.7161 437.724 27.8984C437.138 28.0677 436.467 28.2174 435.712 28.3477C434.957 28.4648 434.221 28.5755 433.505 28.6797C432.789 28.7708 432.19 28.849 431.708 28.9141C430.575 29.0573 429.54 29.2982 428.603 29.6367C427.678 29.9753 426.936 30.4635 426.376 31.1016C425.829 31.7266 425.556 32.5599 425.556 33.6016C425.556 35.0469 426.09 36.1406 427.157 36.8828C428.225 37.612 429.586 37.9766 431.239 37.9766ZM465.189 42.6055C462.286 42.6055 459.786 41.9479 457.689 40.6328C455.606 39.3047 454.005 37.4753 452.885 35.1445C451.765 32.8138 451.205 30.1445 451.205 27.1367C451.205 24.0898 451.778 21.401 452.924 19.0703C454.07 16.7266 455.684 14.8971 457.768 13.582C459.851 12.2669 462.305 11.6094 465.131 11.6094C467.41 11.6094 469.441 12.0326 471.225 12.8789C473.008 13.7122 474.447 14.8841 475.541 16.3945C476.648 17.9049 477.305 19.6693 477.514 21.6875H471.83C471.518 20.2812 470.801 19.0703 469.682 18.0547C468.575 17.0391 467.09 16.5312 465.229 16.5312C463.601 16.5312 462.175 16.9609 460.951 17.8203C459.74 18.6667 458.796 19.8776 458.119 21.4531C457.442 23.0156 457.104 24.8646 457.104 27C457.104 29.1875 457.436 31.0755 458.1 32.6641C458.764 34.2526 459.701 35.4831 460.912 36.3555C462.136 37.2279 463.575 37.6641 465.229 37.6641C466.335 37.6641 467.338 37.4622 468.236 37.0586C469.148 36.6419 469.91 36.0495 470.521 35.2812C471.146 34.513 471.583 33.5885 471.83 32.5078H477.514C477.305 34.4479 476.674 36.1797 475.619 37.7031C474.564 39.2266 473.152 40.4245 471.381 41.2969C469.623 42.1693 467.559 42.6055 465.189 42.6055ZM497.763 12V16.6875H481.376V12H497.763ZM485.771 4.8125H491.61V33.1914C491.61 34.3242 491.78 35.1771 492.118 35.75C492.457 36.3099 492.893 36.694 493.427 36.9023C493.974 37.0977 494.566 37.1953 495.204 37.1953C495.673 37.1953 496.083 37.1628 496.435 37.0977C496.786 37.0326 497.06 36.9805 497.255 36.9414L498.31 41.7656C497.971 41.8958 497.489 42.026 496.864 42.1563C496.239 42.2995 495.458 42.3776 494.521 42.3906C492.984 42.4167 491.552 42.1432 490.224 41.5703C488.896 40.9974 487.821 40.112 487.001 38.9141C486.181 37.7161 485.771 36.2122 485.771 34.4023V4.8125ZM504.223 42V12H510.063V42H504.223ZM507.172 7.37109C506.156 7.37109 505.284 7.03255 504.555 6.35547C503.839 5.66536 503.48 4.84505 503.48 3.89453C503.48 2.93099 503.839 2.11068 504.555 1.43359C505.284 0.743488 506.156 0.398437 507.172 0.398437C508.188 0.398437 509.053 0.743488 509.77 1.43359C510.499 2.11068 510.863 2.93099 510.863 3.89453C510.863 4.84505 510.499 5.66536 509.77 6.35547C509.053 7.03255 508.188 7.37109 507.172 7.37109ZM530.556 42.6055C527.743 42.6055 525.289 41.9609 523.192 40.6719C521.096 39.3828 519.468 37.5794 518.31 35.2617C517.151 32.944 516.571 30.2357 516.571 27.1367C516.571 24.0247 517.151 21.3034 518.31 18.9727C519.468 16.6419 521.096 14.832 523.192 13.543C525.289 12.2539 527.743 11.6094 530.556 11.6094C533.368 11.6094 535.823 12.2539 537.919 13.543C540.015 14.832 541.643 16.6419 542.802 18.9727C543.961 21.3034 544.54 24.0247 544.54 27.1367C544.54 30.2357 543.961 32.944 542.802 35.2617C541.643 37.5794 540.015 39.3828 537.919 40.6719C535.823 41.9609 533.368 42.6055 530.556 42.6055ZM530.575 37.7031C532.398 37.7031 533.909 37.2214 535.106 36.2578C536.304 35.2943 537.19 34.0117 537.763 32.4102C538.349 30.8086 538.642 29.0443 538.642 27.1172C538.642 25.2031 538.349 23.4453 537.763 21.8437C537.19 20.2292 536.304 18.9336 535.106 17.957C533.909 16.9805 532.398 16.4922 530.575 16.4922C528.739 16.4922 527.216 16.9805 526.005 17.957C524.807 18.9336 523.915 20.2292 523.329 21.8437C522.756 23.4453 522.47 25.2031 522.47 27.1172C522.47 29.0443 522.756 30.8086 523.329 32.4102C523.915 34.0117 524.807 35.2943 526.005 36.2578C527.216 37.2214 528.739 37.7031 530.575 37.7031ZM556.898 24.1875V42H551.059V12H556.664V16.8828H557.035C557.725 15.2943 558.806 14.0182 560.277 13.0547C561.762 12.0911 563.63 11.6094 565.883 11.6094C567.927 11.6094 569.717 12.0391 571.254 12.8984C572.79 13.7448 573.982 15.0078 574.828 16.6875C575.674 18.3672 576.098 20.444 576.098 22.918V42H570.258V23.6211C570.258 21.4466 569.691 19.7474 568.559 18.5234C567.426 17.2865 565.87 16.668 563.891 16.668C562.536 16.668 561.332 16.9609 560.277 17.5469C559.236 18.1328 558.409 18.9922 557.797 20.125C557.198 21.2448 556.898 22.599 556.898 24.1875ZM598.485 42V12H604.325V42H598.485ZM601.435 7.37109C600.419 7.37109 599.547 7.03255 598.817 6.35547C598.101 5.66536 597.743 4.84505 597.743 3.89453C597.743 2.93099 598.101 2.11068 598.817 1.43359C599.547 0.743488 600.419 0.398437 601.435 0.398437C602.45 0.398437 603.316 0.743488 604.032 1.43359C604.761 2.11068 605.126 2.93099 605.126 3.89453C605.126 4.84505 604.761 5.66536 604.032 6.35547C603.316 7.03255 602.45 7.37109 601.435 7.37109ZM634.662 19.3242L629.369 20.2617C629.148 19.5846 628.796 18.9401 628.314 18.3281C627.846 17.7161 627.208 17.2148 626.4 16.8242C625.593 16.4336 624.584 16.2383 623.373 16.2383C621.719 16.2383 620.339 16.6094 619.232 17.3516C618.126 18.0807 617.572 19.0247 617.572 20.1836C617.572 21.1862 617.943 21.9935 618.686 22.6055C619.428 23.2174 620.626 23.7187 622.279 24.1094L627.045 25.2031C629.805 25.8411 631.863 26.8242 633.217 28.1523C634.571 29.4805 635.248 31.2057 635.248 33.3281C635.248 35.125 634.727 36.7266 633.686 38.1328C632.657 39.526 631.218 40.6198 629.369 41.4141C627.533 42.2083 625.404 42.6055 622.982 42.6055C619.623 42.6055 616.882 41.8893 614.76 40.457C612.637 39.0117 611.335 36.9609 610.854 34.3047L616.498 33.4453C616.85 34.9167 617.572 36.0299 618.666 36.7852C619.76 37.5273 621.186 37.8984 622.943 37.8984C624.857 37.8984 626.387 37.5013 627.533 36.707C628.679 35.8997 629.252 34.9167 629.252 33.7578C629.252 32.8203 628.9 32.0326 628.197 31.3945C627.507 30.7565 626.446 30.2747 625.014 29.9492L619.936 28.8359C617.136 28.1979 615.066 27.1823 613.725 25.7891C612.396 24.3958 611.732 22.6315 611.732 20.4961C611.732 18.7253 612.227 17.1758 613.217 15.8477C614.206 14.5195 615.574 13.4844 617.318 12.7422C619.063 11.987 621.062 11.6094 623.314 11.6094C626.557 11.6094 629.109 12.3125 630.971 13.7187C632.833 15.112 634.063 16.9805 634.662 19.3242ZM681.889 12L671.01 42H664.76L653.861 12H660.131L667.729 35.0859H668.041L675.619 12H681.889ZM699.286 42.6055C696.33 42.6055 693.785 41.974 691.649 40.7109C689.527 39.4349 687.886 37.6445 686.728 35.3398C685.582 33.0221 685.009 30.3073 685.009 27.1953C685.009 24.1224 685.582 21.4141 686.728 19.0703C687.886 16.7266 689.501 14.8971 691.571 13.582C693.655 12.2669 696.09 11.6094 698.876 11.6094C700.569 11.6094 702.209 11.8893 703.798 12.4492C705.386 13.0091 706.812 13.888 708.075 15.0859C709.338 16.2839 710.334 17.8398 711.063 19.7539C711.793 21.6549 712.157 23.9661 712.157 26.6875V28.7578H688.31V24.3828H706.435C706.435 22.8464 706.122 21.4857 705.497 20.3008C704.872 19.1029 703.993 18.1589 702.86 17.4687C701.741 16.7786 700.425 16.4336 698.915 16.4336C697.274 16.4336 695.842 16.8372 694.618 17.6445C693.407 18.4388 692.47 19.4805 691.806 20.7695C691.155 22.0456 690.829 23.4323 690.829 24.9297V28.3477C690.829 30.3529 691.181 32.0586 691.884 33.4648C692.6 34.8711 693.596 35.9453 694.872 36.6875C696.148 37.4167 697.639 37.7812 699.345 37.7812C700.451 37.7812 701.461 37.625 702.372 37.3125C703.284 36.987 704.071 36.5052 704.735 35.8672C705.399 35.2292 705.907 34.4414 706.259 33.5039L711.786 34.5C711.343 36.1276 710.549 37.5534 709.403 38.7773C708.271 39.9883 706.845 40.9323 705.126 41.6094C703.42 42.2734 701.474 42.6055 699.286 42.6055ZM718.637 42V12H724.281V16.7656H724.594C725.141 15.151 726.104 13.8815 727.484 12.957C728.878 12.0195 730.453 11.5508 732.211 11.5508C732.576 11.5508 733.005 11.5638 733.5 11.5898C734.008 11.6159 734.405 11.6484 734.691 11.6875V17.2734C734.457 17.2083 734.04 17.1367 733.441 17.0586C732.842 16.9674 732.243 16.9219 731.645 16.9219C730.264 16.9219 729.034 17.2148 727.953 17.8008C726.885 18.3737 726.039 19.1745 725.414 20.2031C724.789 21.2187 724.477 22.3776 724.477 23.6797V42H718.637ZM744.35 53.25C743.477 53.25 742.683 53.1784 741.967 53.0352C741.251 52.9049 740.717 52.7617 740.365 52.6055L741.771 47.8203C742.839 48.1068 743.79 48.2305 744.623 48.1914C745.456 48.1523 746.192 47.8398 746.83 47.2539C747.481 46.668 748.054 45.7109 748.549 44.3828L749.271 42.3906L738.295 12H744.545L752.143 35.2812H752.455L760.053 12H766.322L753.959 46.0039C753.386 47.5664 752.657 48.888 751.771 49.9688C750.886 51.0625 749.831 51.8828 748.607 52.4297C747.383 52.9766 745.964 53.25 744.35 53.25ZM4.92578 109V79H10.7656V109H4.92578ZM7.875 74.3711C6.85938 74.3711 5.98698 74.0326 5.25781 73.3555C4.54167 72.6654 4.18359 71.8451 4.18359 70.8945C4.18359 69.931 4.54167 69.1107 5.25781 68.4336C5.98698 67.7435 6.85938 67.3984 7.875 67.3984C8.89063 67.3984 9.75651 67.7435 10.4727 68.4336C11.2018 69.1107 11.5664 69.931 11.5664 70.8945C11.5664 71.8451 11.2018 72.6654 10.4727 73.3555C9.75651 74.0326 8.89063 74.3711 7.875 74.3711ZM18.6221 109V79H24.2275V83.8828H24.5986C25.2236 82.2292 26.2458 80.9401 27.665 80.0156C29.0843 79.0781 30.7835 78.6094 32.7627 78.6094C34.7679 78.6094 36.4476 79.0781 37.8018 80.0156C39.1689 80.9531 40.1781 82.2422 40.8291 83.8828H41.1416C41.8577 82.2812 42.9971 81.0052 44.5596 80.0547C46.1221 79.0911 47.984 78.6094 50.1455 78.6094C52.8669 78.6094 55.0869 79.4622 56.8057 81.168C58.5374 82.8737 59.4033 85.4453 59.4033 88.8828V109H53.5635V89.4297C53.5635 87.3984 53.0101 85.9271 51.9033 85.0156C50.7965 84.1042 49.4749 83.6484 47.9385 83.6484C46.0374 83.6484 44.5596 84.2344 43.5049 85.4062C42.4502 86.5651 41.9229 88.056 41.9229 89.8789V109H36.1025V89.0586C36.1025 87.431 35.5947 86.1224 34.5791 85.1328C33.5635 84.1432 32.2419 83.6484 30.6143 83.6484C29.5075 83.6484 28.4854 83.9414 27.5479 84.5273C26.6234 85.1003 25.8747 85.901 25.3018 86.9297C24.7419 87.9583 24.4619 89.1497 24.4619 90.5039V109H18.6221ZM67.2305 120.25V79H72.9336V83.8633H73.4219C73.7604 83.2383 74.2487 82.5156 74.8867 81.6953C75.5247 80.875 76.4102 80.1589 77.543 79.5469C78.6758 78.9219 80.1732 78.6094 82.0352 78.6094C84.457 78.6094 86.6185 79.2214 88.5195 80.4453C90.4206 81.6693 91.9115 83.4336 92.9922 85.7383C94.0859 88.043 94.6328 90.8164 94.6328 94.0586C94.6328 97.3008 94.0924 100.081 93.0117 102.398C91.931 104.703 90.4466 106.48 88.5586 107.73C86.6706 108.967 84.5156 109.586 82.0938 109.586C80.2708 109.586 78.7799 109.28 77.6211 108.668C76.4753 108.056 75.5768 107.34 74.9258 106.52C74.2747 105.699 73.7734 104.97 73.4219 104.332H73.0703V120.25H67.2305ZM72.9531 94C72.9531 96.1094 73.2591 97.9583 73.8711 99.5469C74.4831 101.135 75.3685 102.379 76.5273 103.277C77.6862 104.163 79.1055 104.605 80.7852 104.605C82.5299 104.605 83.9883 104.143 85.1602 103.219C86.332 102.281 87.2174 101.012 87.8164 99.4102C88.4284 97.8086 88.7344 96.0052 88.7344 94C88.7344 92.0208 88.4349 90.2435 87.8359 88.668C87.25 87.0924 86.3646 85.849 85.1797 84.9375C84.0078 84.026 82.543 83.5703 80.7852 83.5703C79.0924 83.5703 77.6602 84.0065 76.4883 84.8789C75.3294 85.7513 74.4505 86.9687 73.8516 88.5312C73.2526 90.0937 72.9531 91.9167 72.9531 94ZM113.813 109.605C111 109.605 108.546 108.961 106.449 107.672C104.353 106.383 102.725 104.579 101.566 102.262C100.408 99.944 99.8281 97.2357 99.8281 94.1367C99.8281 91.0247 100.408 88.3034 101.566 85.9727C102.725 83.6419 104.353 81.832 106.449 80.543C108.546 79.2539 111 78.6094 113.813 78.6094C116.625 78.6094 119.079 79.2539 121.176 80.543C123.272 81.832 124.9 83.6419 126.059 85.9727C127.217 88.3034 127.797 91.0247 127.797 94.1367C127.797 97.2357 127.217 99.944 126.059 102.262C124.9 104.579 123.272 106.383 121.176 107.672C119.079 108.961 116.625 109.605 113.813 109.605ZM113.832 104.703C115.655 104.703 117.165 104.221 118.363 103.258C119.561 102.294 120.447 101.012 121.02 99.4102C121.605 97.8086 121.898 96.0443 121.898 94.1172C121.898 92.2031 121.605 90.4453 121.02 88.8437C120.447 87.2292 119.561 85.9336 118.363 84.957C117.165 83.9805 115.655 83.4922 113.832 83.4922C111.996 83.4922 110.473 83.9805 109.262 84.957C108.064 85.9336 107.172 87.2292 106.586 88.8437C106.013 90.4453 105.727 92.2031 105.727 94.1172C105.727 96.0443 106.013 97.8086 106.586 99.4102C107.172 101.012 108.064 102.294 109.262 103.258C110.473 104.221 111.996 104.703 113.832 104.703ZM134.315 109V79H139.96V83.7656H140.272C140.819 82.151 141.783 80.8815 143.163 79.957C144.556 79.0195 146.132 78.5508 147.89 78.5508C148.254 78.5508 148.684 78.5638 149.179 78.5898C149.687 78.6159 150.084 78.6484 150.37 78.6875V84.2734C150.136 84.2083 149.719 84.1367 149.12 84.0586C148.521 83.9674 147.922 83.9219 147.323 83.9219C145.943 83.9219 144.713 84.2148 143.632 84.8008C142.564 85.3737 141.718 86.1745 141.093 87.2031C140.468 88.2187 140.155 89.3776 140.155 90.6797V109H134.315ZM171.2 79V83.6875H154.813V79H171.2ZM159.208 71.8125H165.048V100.191C165.048 101.324 165.217 102.177 165.556 102.75C165.894 103.31 166.33 103.694 166.864 103.902C167.411 104.098 168.004 104.195 168.642 104.195C169.11 104.195 169.521 104.163 169.872 104.098C170.224 104.033 170.497 103.98 170.692 103.941L171.747 108.766C171.409 108.896 170.927 109.026 170.302 109.156C169.677 109.299 168.896 109.378 167.958 109.391C166.422 109.417 164.989 109.143 163.661 108.57C162.333 107.997 161.259 107.112 160.438 105.914C159.618 104.716 159.208 103.212 159.208 101.402V71.8125ZM186.391 109.664C184.49 109.664 182.771 109.313 181.234 108.609C179.698 107.893 178.48 106.858 177.582 105.504C176.697 104.15 176.254 102.49 176.254 100.523C176.254 98.8307 176.579 97.4375 177.23 96.3437C177.882 95.25 178.76 94.3841 179.867 93.7461C180.974 93.1081 182.211 92.6263 183.578 92.3008C184.945 91.9753 186.339 91.7279 187.758 91.5586C189.555 91.3503 191.013 91.181 192.133 91.0508C193.253 90.9076 194.066 90.6797 194.574 90.3672C195.082 90.0547 195.336 89.5469 195.336 88.8437V88.707C195.336 87.0013 194.854 85.6797 193.891 84.7422C192.94 83.8047 191.521 83.3359 189.633 83.3359C187.667 83.3359 186.117 83.7721 184.984 84.6445C183.865 85.5039 183.09 86.4609 182.66 87.5156L177.172 86.2656C177.823 84.4427 178.773 82.9714 180.023 81.8516C181.286 80.7187 182.738 79.8984 184.379 79.3906C186.02 78.8698 187.745 78.6094 189.555 78.6094C190.753 78.6094 192.022 78.7526 193.363 79.0391C194.717 79.3125 195.98 79.8203 197.152 80.5625C198.337 81.3047 199.307 82.3659 200.063 83.7461C200.818 85.1133 201.195 86.8906 201.195 89.0781V109H195.492V104.898H195.258C194.88 105.654 194.314 106.396 193.559 107.125C192.803 107.854 191.833 108.46 190.648 108.941C189.464 109.423 188.044 109.664 186.391 109.664ZM187.66 104.977C189.275 104.977 190.655 104.658 191.801 104.02C192.96 103.382 193.839 102.548 194.438 101.52C195.049 100.478 195.355 99.3646 195.355 98.1797V94.3125C195.147 94.5208 194.743 94.7161 194.145 94.8984C193.559 95.0677 192.888 95.2174 192.133 95.3477C191.378 95.4648 190.642 95.5755 189.926 95.6797C189.21 95.7708 188.611 95.849 188.129 95.9141C186.996 96.0573 185.961 96.2982 185.023 96.6367C184.099 96.9753 183.357 97.4635 182.797 98.1016C182.25 98.7266 181.977 99.5599 181.977 100.602C181.977 102.047 182.51 103.141 183.578 103.883C184.646 104.612 186.007 104.977 187.66 104.977ZM214.813 91.1875V109H208.974V79H214.579V83.8828H214.95C215.64 82.2943 216.721 81.0182 218.192 80.0547C219.677 79.0911 221.545 78.6094 223.798 78.6094C225.842 78.6094 227.632 79.0391 229.169 79.8984C230.705 80.7448 231.897 82.0078 232.743 83.6875C233.59 85.3672 234.013 87.444 234.013 89.918V109H228.173V90.6211C228.173 88.4466 227.606 86.7474 226.474 85.5234C225.341 84.2865 223.785 83.668 221.806 83.668C220.451 83.668 219.247 83.9609 218.192 84.5469C217.151 85.1328 216.324 85.9922 215.712 87.125C215.113 88.2448 214.813 89.599 214.813 91.1875ZM255.849 79V83.6875H239.462V79H255.849ZM243.856 71.8125H249.696V100.191C249.696 101.324 249.866 102.177 250.204 102.75C250.543 103.31 250.979 103.694 251.513 103.902C252.06 104.098 252.652 104.195 253.29 104.195C253.759 104.195 254.169 104.163 254.521 104.098C254.872 104.033 255.146 103.98 255.341 103.941L256.396 108.766C256.057 108.896 255.575 109.026 254.95 109.156C254.325 109.299 253.544 109.378 252.606 109.391C251.07 109.417 249.638 109.143 248.31 108.57C246.981 107.997 245.907 107.112 245.087 105.914C244.267 104.716 243.856 103.212 243.856 101.402V71.8125ZM290.868 79V83.6875H274.481V79H290.868ZM278.876 71.8125H284.716V100.191C284.716 101.324 284.885 102.177 285.224 102.75C285.562 103.31 285.998 103.694 286.532 103.902C287.079 104.098 287.672 104.195 288.31 104.195C288.778 104.195 289.188 104.163 289.54 104.098C289.892 104.033 290.165 103.98 290.36 103.941L291.415 108.766C291.076 108.896 290.595 109.026 289.97 109.156C289.345 109.299 288.563 109.378 287.626 109.391C286.09 109.417 284.657 109.143 283.329 108.57C282.001 107.997 280.927 107.112 280.106 105.914C279.286 104.716 278.876 103.212 278.876 101.402V71.8125ZM309.643 109.605C306.83 109.605 304.376 108.961 302.279 107.672C300.183 106.383 298.555 104.579 297.396 102.262C296.238 99.944 295.658 97.2357 295.658 94.1367C295.658 91.0247 296.238 88.3034 297.396 85.9727C298.555 83.6419 300.183 81.832 302.279 80.543C304.376 79.2539 306.83 78.6094 309.643 78.6094C312.455 78.6094 314.91 79.2539 317.006 80.543C319.102 81.832 320.73 83.6419 321.889 85.9727C323.048 88.3034 323.627 91.0247 323.627 94.1367C323.627 97.2357 323.048 99.944 321.889 102.262C320.73 104.579 319.102 106.383 317.006 107.672C314.91 108.961 312.455 109.605 309.643 109.605ZM309.662 104.703C311.485 104.703 312.995 104.221 314.193 103.258C315.391 102.294 316.277 101.012 316.85 99.4102C317.436 97.8086 317.729 96.0443 317.729 94.1172C317.729 92.2031 317.436 90.4453 316.85 88.8437C316.277 87.2292 315.391 85.9336 314.193 84.957C312.995 83.9805 311.485 83.4922 309.662 83.4922C307.826 83.4922 306.303 83.9805 305.092 84.957C303.894 85.9336 303.002 87.2292 302.416 88.8437C301.843 90.4453 301.557 92.2031 301.557 94.1172C301.557 96.0443 301.843 97.8086 302.416 99.4102C303.002 101.012 303.894 102.294 305.092 103.258C306.303 104.221 307.826 104.703 309.662 104.703ZM363.705 96.5586V79H369.564V109H363.822V103.805H363.51C362.82 105.406 361.713 106.741 360.189 107.809C358.679 108.863 356.798 109.391 354.545 109.391C352.618 109.391 350.912 108.967 349.428 108.121C347.956 107.262 346.798 105.992 345.951 104.312C345.118 102.633 344.701 100.556 344.701 98.082V79H350.541V97.3789C350.541 99.4232 351.107 101.051 352.24 102.262C353.373 103.473 354.844 104.078 356.654 104.078C357.748 104.078 358.835 103.805 359.916 103.258C361.01 102.711 361.915 101.884 362.631 100.777C363.36 99.6706 363.718 98.2643 363.705 96.5586ZM399.892 86.3242L394.599 87.2617C394.377 86.5846 394.026 85.9401 393.544 85.3281C393.075 84.7161 392.437 84.2148 391.63 83.8242C390.823 83.4336 389.813 83.2383 388.603 83.2383C386.949 83.2383 385.569 83.6094 384.462 84.3516C383.355 85.0807 382.802 86.0247 382.802 87.1836C382.802 88.1862 383.173 88.9935 383.915 89.6055C384.657 90.2174 385.855 90.7187 387.509 91.1094L392.274 92.2031C395.035 92.8411 397.092 93.8242 398.446 95.1523C399.8 96.4805 400.478 98.2057 400.478 100.328C400.478 102.125 399.957 103.727 398.915 105.133C397.886 106.526 396.448 107.62 394.599 108.414C392.763 109.208 390.634 109.605 388.212 109.605C384.853 109.605 382.112 108.889 379.989 107.457C377.867 106.012 376.565 103.961 376.083 101.305L381.728 100.445C382.079 101.917 382.802 103.03 383.896 103.785C384.989 104.527 386.415 104.898 388.173 104.898C390.087 104.898 391.617 104.501 392.763 103.707C393.909 102.9 394.481 101.917 394.481 100.758C394.481 99.8203 394.13 99.0326 393.427 98.3945C392.737 97.7565 391.675 97.2747 390.243 96.9492L385.165 95.8359C382.366 95.1979 380.295 94.1823 378.954 92.7891C377.626 91.3958 376.962 89.6315 376.962 87.4961C376.962 85.7253 377.457 84.1758 378.446 82.8477C379.436 81.5195 380.803 80.4844 382.548 79.7422C384.293 78.987 386.291 78.6094 388.544 78.6094C391.786 78.6094 394.338 79.3125 396.2 80.7187C398.062 82.112 399.293 83.9805 399.892 86.3242ZM414.262 69L413.754 97.4961H408.344L407.836 69H414.262ZM411.059 109.371C409.978 109.371 409.053 108.993 408.285 108.238C407.517 107.47 407.139 106.546 407.152 105.465C407.139 104.397 407.517 103.486 408.285 102.73C409.053 101.962 409.978 101.578 411.059 101.578C412.113 101.578 413.025 101.962 413.793 102.73C414.561 103.486 414.952 104.397 414.965 105.465C414.952 106.181 414.763 106.839 414.398 107.437C414.047 108.023 413.578 108.492 412.992 108.844C412.406 109.195 411.762 109.371 411.059 109.371ZM459.906 79.5078C459.698 77.6589 458.839 76.2266 457.328 75.2109C455.818 74.1823 453.917 73.668 451.625 73.668C449.984 73.668 448.565 73.9284 447.367 74.4492C446.169 74.957 445.238 75.6602 444.574 76.5586C443.923 77.444 443.598 78.4531 443.598 79.5859C443.598 80.5365 443.819 81.3568 444.262 82.0469C444.717 82.737 445.31 83.3164 446.039 83.7852C446.781 84.2409 447.576 84.625 448.422 84.9375C449.268 85.237 450.082 85.4844 450.863 85.6797L454.77 86.6953C456.046 87.0078 457.354 87.431 458.695 87.9648C460.036 88.4987 461.28 89.2018 462.426 90.0742C463.572 90.9466 464.496 92.0273 465.199 93.3164C465.915 94.6055 466.273 96.1484 466.273 97.9453C466.273 100.211 465.688 102.223 464.516 103.98C463.357 105.738 461.671 107.125 459.457 108.141C457.257 109.156 454.594 109.664 451.469 109.664C448.474 109.664 445.883 109.189 443.695 108.238C441.508 107.288 439.796 105.94 438.559 104.195C437.322 102.437 436.638 100.354 436.508 97.9453H442.563C442.68 99.3906 443.148 100.595 443.969 101.559C444.802 102.509 445.863 103.219 447.152 103.687C448.454 104.143 449.88 104.371 451.43 104.371C453.135 104.371 454.652 104.104 455.98 103.57C457.322 103.023 458.376 102.268 459.145 101.305C459.913 100.328 460.297 99.1888 460.297 97.8867C460.297 96.7018 459.958 95.7318 459.281 94.9766C458.617 94.2214 457.712 93.5964 456.566 93.1016C455.434 92.6068 454.151 92.1706 452.719 91.793L447.992 90.5039C444.789 89.6315 442.25 88.349 440.375 86.6562C438.513 84.9635 437.582 82.724 437.582 79.9375C437.582 77.6328 438.207 75.6211 439.457 73.9023C440.707 72.1836 442.4 70.849 444.535 69.8984C446.671 68.9349 449.079 68.4531 451.762 68.4531C454.47 68.4531 456.859 68.9284 458.93 69.8789C461.013 70.8294 462.654 72.138 463.852 73.8047C465.049 75.4583 465.674 77.3594 465.727 79.5078H459.906ZM485.946 109.605C482.991 109.605 480.445 108.974 478.31 107.711C476.187 106.435 474.547 104.645 473.388 102.34C472.242 100.022 471.669 97.3073 471.669 94.1953C471.669 91.1224 472.242 88.4141 473.388 86.0703C474.547 83.7266 476.161 81.8971 478.231 80.582C480.315 79.2669 482.75 78.6094 485.536 78.6094C487.229 78.6094 488.869 78.8893 490.458 79.4492C492.047 80.0091 493.472 80.888 494.735 82.0859C495.998 83.2839 496.994 84.8398 497.724 86.7539C498.453 88.6549 498.817 90.9661 498.817 93.6875V95.7578H474.97V91.3828H493.095C493.095 89.8464 492.782 88.4857 492.157 87.3008C491.532 86.1029 490.653 85.1589 489.521 84.4687C488.401 83.7786 487.086 83.4336 485.575 83.4336C483.935 83.4336 482.502 83.8372 481.278 84.6445C480.067 85.4388 479.13 86.4805 478.466 87.7695C477.815 89.0456 477.489 90.4323 477.489 91.9297V95.3477C477.489 97.3529 477.841 99.0586 478.544 100.465C479.26 101.871 480.256 102.945 481.532 103.687C482.808 104.417 484.299 104.781 486.005 104.781C487.112 104.781 488.121 104.625 489.032 104.312C489.944 103.987 490.731 103.505 491.396 102.867C492.06 102.229 492.567 101.441 492.919 100.504L498.446 101.5C498.004 103.128 497.209 104.553 496.063 105.777C494.931 106.988 493.505 107.932 491.786 108.609C490.08 109.273 488.134 109.605 485.946 109.605ZM511.137 91.1875V109H505.297V79H510.902V83.8828H511.273C511.964 82.2943 513.044 81.0182 514.516 80.0547C516 79.0911 517.868 78.6094 520.121 78.6094C522.165 78.6094 523.956 79.0391 525.492 79.8984C527.029 80.7448 528.22 82.0078 529.066 83.6875C529.913 85.3672 530.336 87.444 530.336 89.918V109H524.496V90.6211C524.496 88.4466 523.93 86.7474 522.797 85.5234C521.664 84.2865 520.108 83.668 518.129 83.668C516.775 83.668 515.57 83.9609 514.516 84.5469C513.474 85.1328 512.647 85.9922 512.035 87.125C511.436 88.2448 511.137 89.599 511.137 91.1875ZM549.398 109.586C546.977 109.586 544.815 108.967 542.914 107.73C541.026 106.48 539.542 104.703 538.461 102.398C537.393 100.081 536.859 97.3008 536.859 94.0586C536.859 90.8164 537.4 88.043 538.48 85.7383C539.574 83.4336 541.072 81.6693 542.973 80.4453C544.874 79.2214 547.029 78.6094 549.437 78.6094C551.299 78.6094 552.797 78.9219 553.93 79.5469C555.076 80.1589 555.961 80.875 556.586 81.6953C557.224 82.5156 557.719 83.2383 558.07 83.8633H558.422V69H564.262V109H558.559V104.332H558.07C557.719 104.97 557.211 105.699 556.547 106.52C555.896 107.34 554.997 108.056 553.852 108.668C552.706 109.28 551.221 109.586 549.398 109.586ZM550.688 104.605C552.367 104.605 553.786 104.163 554.945 103.277C556.117 102.379 557.003 101.135 557.602 99.5469C558.214 97.9583 558.52 96.1094 558.52 94C558.52 91.9167 558.22 90.0937 557.621 88.5312C557.022 86.9687 556.143 85.7513 554.984 84.8789C553.826 84.0065 552.393 83.5703 550.688 83.5703C548.93 83.5703 547.465 84.026 546.293 84.9375C545.121 85.849 544.236 87.0924 543.637 88.668C543.051 90.2435 542.758 92.0208 542.758 94C542.758 96.0052 543.057 97.8086 543.656 99.4102C544.255 101.012 545.141 102.281 546.313 103.219C547.497 104.143 548.956 104.605 550.688 104.605ZM595.883 109.664C593.982 109.664 592.263 109.313 590.727 108.609C589.19 107.893 587.973 106.858 587.074 105.504C586.189 104.15 585.746 102.49 585.746 100.523C585.746 98.8307 586.072 97.4375 586.723 96.3437C587.374 95.25 588.253 94.3841 589.359 93.7461C590.466 93.1081 591.703 92.6263 593.07 92.3008C594.438 91.9753 595.831 91.7279 597.25 91.5586C599.047 91.3503 600.505 91.181 601.625 91.0508C602.745 90.9076 603.559 90.6797 604.066 90.3672C604.574 90.0547 604.828 89.5469 604.828 88.8437V88.707C604.828 87.0013 604.346 85.6797 603.383 84.7422C602.432 83.8047 601.013 83.3359 599.125 83.3359C597.159 83.3359 595.609 83.7721 594.477 84.6445C593.357 85.5039 592.582 86.4609 592.152 87.5156L586.664 86.2656C587.315 84.4427 588.266 82.9714 589.516 81.8516C590.779 80.7187 592.23 79.8984 593.871 79.3906C595.512 78.8698 597.237 78.6094 599.047 78.6094C600.245 78.6094 601.514 78.7526 602.855 79.0391C604.21 79.3125 605.473 79.8203 606.645 80.5625C607.829 81.3047 608.799 82.3659 609.555 83.7461C610.31 85.1133 610.688 86.8906 610.688 89.0781V109H604.984V104.898H604.75C604.372 105.654 603.806 106.396 603.051 107.125C602.296 107.854 601.326 108.46 600.141 108.941C598.956 109.423 597.536 109.664 595.883 109.664ZM597.152 104.977C598.767 104.977 600.147 104.658 601.293 104.02C602.452 103.382 603.331 102.548 603.93 101.52C604.542 100.478 604.848 99.3646 604.848 98.1797V94.3125C604.639 94.5208 604.236 94.7161 603.637 94.8984C603.051 95.0677 602.38 95.2174 601.625 95.3477C600.87 95.4648 600.134 95.5755 599.418 95.6797C598.702 95.7708 598.103 95.849 597.621 95.9141C596.488 96.0573 595.453 96.2982 594.516 96.6367C593.591 96.9753 592.849 97.4635 592.289 98.1016C591.742 98.7266 591.469 99.5599 591.469 100.602C591.469 102.047 592.003 103.141 593.07 103.883C594.138 104.612 595.499 104.977 597.152 104.977ZM633.021 109V79H638.627V83.8828H638.998C639.623 82.2292 640.645 80.9401 642.064 80.0156C643.484 79.0781 645.183 78.6094 647.162 78.6094C649.167 78.6094 650.847 79.0781 652.201 80.0156C653.568 80.9531 654.577 82.2422 655.229 83.8828H655.541C656.257 82.2812 657.396 81.0052 658.959 80.0547C660.521 79.0911 662.383 78.6094 664.545 78.6094C667.266 78.6094 669.486 79.4622 671.205 81.168C672.937 82.8737 673.803 85.4453 673.803 88.8828V109H667.963V89.4297C667.963 87.3984 667.41 85.9271 666.303 85.0156C665.196 84.1042 663.874 83.6484 662.338 83.6484C660.437 83.6484 658.959 84.2344 657.904 85.4062C656.85 86.5651 656.322 88.056 656.322 89.8789V109H650.502V89.0586C650.502 87.431 649.994 86.1224 648.979 85.1328C647.963 84.1432 646.641 83.6484 645.014 83.6484C643.907 83.6484 642.885 83.9414 641.947 84.5273C641.023 85.1003 640.274 85.901 639.701 86.9297C639.141 87.9583 638.861 89.1497 638.861 90.5039V109H633.021ZM694.56 109.605C691.604 109.605 689.058 108.974 686.923 107.711C684.8 106.435 683.16 104.645 682.001 102.34C680.855 100.022 680.282 97.3073 680.282 94.1953C680.282 91.1224 680.855 88.4141 682.001 86.0703C683.16 83.7266 684.774 81.8971 686.845 80.582C688.928 79.2669 691.363 78.6094 694.149 78.6094C695.842 78.6094 697.483 78.8893 699.071 79.4492C700.66 80.0091 702.086 80.888 703.349 82.0859C704.612 83.2839 705.608 84.8398 706.337 86.7539C707.066 88.6549 707.431 90.9661 707.431 93.6875V95.7578H683.583V91.3828H701.708C701.708 89.8464 701.396 88.4857 700.771 87.3008C700.146 86.1029 699.267 85.1589 698.134 84.4687C697.014 83.7786 695.699 83.4336 694.188 83.4336C692.548 83.4336 691.116 83.8372 689.892 84.6445C688.681 85.4388 687.743 86.4805 687.079 87.7695C686.428 89.0456 686.103 90.4323 686.103 91.9297V95.3477C686.103 97.3529 686.454 99.0586 687.157 100.465C687.873 101.871 688.869 102.945 690.146 103.687C691.422 104.417 692.912 104.781 694.618 104.781C695.725 104.781 696.734 104.625 697.646 104.312C698.557 103.987 699.345 103.505 700.009 102.867C700.673 102.229 701.181 101.441 701.532 100.504L707.06 101.5C706.617 103.128 705.823 104.553 704.677 105.777C703.544 106.988 702.118 107.932 700.399 108.609C698.694 109.273 696.747 109.605 694.56 109.605ZM736.391 86.3242L731.098 87.2617C730.876 86.5846 730.525 85.9401 730.043 85.3281C729.574 84.7161 728.936 84.2148 728.129 83.8242C727.322 83.4336 726.313 83.2383 725.102 83.2383C723.448 83.2383 722.068 83.6094 720.961 84.3516C719.854 85.0807 719.301 86.0247 719.301 87.1836C719.301 88.1862 719.672 88.9935 720.414 89.6055C721.156 90.2174 722.354 90.7187 724.008 91.1094L728.773 92.2031C731.534 92.8411 733.591 93.8242 734.945 95.1523C736.299 96.4805 736.977 98.2057 736.977 100.328C736.977 102.125 736.456 103.727 735.414 105.133C734.385 106.526 732.947 107.62 731.098 108.414C729.262 109.208 727.133 109.605 724.711 109.605C721.352 109.605 718.611 108.889 716.488 107.457C714.366 106.012 713.064 103.961 712.582 101.305L718.227 100.445C718.578 101.917 719.301 103.03 720.395 103.785C721.488 104.527 722.914 104.898 724.672 104.898C726.586 104.898 728.116 104.501 729.262 103.707C730.408 102.9 730.98 101.917 730.98 100.758C730.98 99.8203 730.629 99.0326 729.926 98.3945C729.236 97.7565 728.174 97.2747 726.742 96.9492L721.664 95.8359C718.865 95.1979 716.794 94.1823 715.453 92.7891C714.125 91.3958 713.461 89.6315 713.461 87.4961C713.461 85.7253 713.956 84.1758 714.945 82.8477C715.935 81.5195 717.302 80.4844 719.047 79.7422C720.792 78.987 722.79 78.6094 725.043 78.6094C728.285 78.6094 730.837 79.3125 732.699 80.7187C734.561 82.112 735.792 83.9805 736.391 86.3242ZM765.878 86.3242L760.585 87.2617C760.364 86.5846 760.012 85.9401 759.53 85.3281C759.062 84.7161 758.424 84.2148 757.616 83.8242C756.809 83.4336 755.8 83.2383 754.589 83.2383C752.935 83.2383 751.555 83.6094 750.448 84.3516C749.341 85.0807 748.788 86.0247 748.788 87.1836C748.788 88.1862 749.159 88.9935 749.901 89.6055C750.644 90.2174 751.841 90.7187 753.495 91.1094L758.261 92.2031C761.021 92.8411 763.078 93.8242 764.433 95.1523C765.787 96.4805 766.464 98.2057 766.464 100.328C766.464 102.125 765.943 103.727 764.901 105.133C763.873 106.526 762.434 107.62 760.585 108.414C758.749 109.208 756.62 109.605 754.198 109.605C750.839 109.605 748.098 108.889 745.976 107.457C743.853 106.012 742.551 103.961 742.069 101.305L747.714 100.445C748.065 101.917 748.788 103.03 749.882 103.785C750.976 104.527 752.401 104.898 754.159 104.898C756.073 104.898 757.603 104.501 758.749 103.707C759.895 102.9 760.468 101.917 760.468 100.758C760.468 99.8203 760.116 99.0326 759.413 98.3945C758.723 97.7565 757.662 97.2747 756.229 96.9492L751.151 95.8359C748.352 95.1979 746.282 94.1823 744.94 92.7891C743.612 91.3958 742.948 89.6315 742.948 87.4961C742.948 85.7253 743.443 84.1758 744.433 82.8477C745.422 81.5195 746.789 80.4844 748.534 79.7422C750.279 78.987 752.278 78.6094 754.53 78.6094C757.772 78.6094 760.325 79.3125 762.187 80.7187C764.049 82.112 765.279 83.9805 765.878 86.3242ZM781.615 109.664C779.714 109.664 777.995 109.313 776.459 108.609C774.923 107.893 773.705 106.858 772.807 105.504C771.921 104.15 771.479 102.49 771.479 100.523C771.479 98.8307 771.804 97.4375 772.455 96.3437C773.106 95.25 773.985 94.3841 775.092 93.7461C776.199 93.1081 777.436 92.6263 778.803 92.3008C780.17 91.9753 781.563 91.7279 782.982 91.5586C784.779 91.3503 786.238 91.181 787.357 91.0508C788.477 90.9076 789.291 90.6797 789.799 90.3672C790.307 90.0547 790.561 89.5469 790.561 88.8437V88.707C790.561 87.0013 790.079 85.6797 789.115 84.7422C788.165 83.8047 786.745 83.3359 784.857 83.3359C782.891 83.3359 781.342 83.7721 780.209 84.6445C779.089 85.5039 778.314 86.4609 777.885 87.5156L772.396 86.2656C773.048 84.4427 773.998 82.9714 775.248 81.8516C776.511 80.7187 777.963 79.8984 779.604 79.3906C781.244 78.8698 782.969 78.6094 784.779 78.6094C785.977 78.6094 787.247 78.7526 788.588 79.0391C789.942 79.3125 791.205 79.8203 792.377 80.5625C793.562 81.3047 794.532 82.3659 795.287 83.7461C796.042 85.1133 796.42 86.8906 796.42 89.0781V109H790.717V104.898H790.482C790.105 105.654 789.538 106.396 788.783 107.125C788.028 107.854 787.058 108.46 785.873 108.941C784.688 109.423 783.269 109.664 781.615 109.664ZM782.885 104.977C784.499 104.977 785.88 104.658 787.025 104.02C788.184 103.382 789.063 102.548 789.662 101.52C790.274 100.478 790.58 99.3646 790.58 98.1797V94.3125C790.372 94.5208 789.968 94.7161 789.369 94.8984C788.783 95.0677 788.113 95.2174 787.357 95.3477C786.602 95.4648 785.867 95.5755 785.15 95.6797C784.434 95.7708 783.835 95.849 783.354 95.9141C782.221 96.0573 781.186 96.2982 780.248 96.6367C779.324 96.9753 778.581 97.4635 778.021 98.1016C777.475 98.7266 777.201 99.5599 777.201 100.602C777.201 102.047 777.735 103.141 778.803 103.883C779.87 104.612 781.231 104.977 782.885 104.977ZM816.776 120.875C814.394 120.875 812.343 120.563 810.624 119.938C808.918 119.313 807.525 118.486 806.444 117.457C805.364 116.428 804.556 115.302 804.022 114.078L809.042 112.008C809.394 112.581 809.862 113.186 810.448 113.824C811.047 114.475 811.854 115.029 812.87 115.484C813.899 115.94 815.22 116.168 816.835 116.168C819.049 116.168 820.878 115.628 822.323 114.547C823.769 113.479 824.491 111.773 824.491 109.43V103.531H824.12C823.769 104.169 823.261 104.879 822.597 105.66C821.946 106.441 821.047 107.118 819.901 107.691C818.756 108.264 817.265 108.551 815.429 108.551C813.059 108.551 810.924 107.997 809.022 106.891C807.134 105.771 805.637 104.124 804.53 101.949C803.437 99.7617 802.89 97.0729 802.89 93.8828C802.89 90.6927 803.43 87.9583 804.511 85.6797C805.604 83.401 807.102 81.6562 809.003 80.4453C810.904 79.2214 813.059 78.6094 815.468 78.6094C817.33 78.6094 818.834 78.9219 819.979 79.5469C821.125 80.1589 822.017 80.875 822.655 81.6953C823.306 82.5156 823.808 83.2383 824.159 83.8633H824.589V79H830.312V109.664C830.312 112.242 829.713 114.358 828.515 116.012C827.317 117.665 825.696 118.889 823.651 119.684C821.62 120.478 819.328 120.875 816.776 120.875ZM816.718 103.707C818.397 103.707 819.817 103.316 820.976 102.535C822.147 101.741 823.033 100.608 823.632 99.1367C824.244 97.6523 824.55 95.875 824.55 93.8047C824.55 91.7865 824.25 90.0091 823.651 88.4727C823.052 86.9362 822.174 85.7383 821.015 84.8789C819.856 84.0065 818.424 83.5703 816.718 83.5703C814.96 83.5703 813.495 84.026 812.323 84.9375C811.151 85.8359 810.266 87.0599 809.667 88.6094C809.081 90.1589 808.788 91.8906 808.788 93.8047C808.788 95.7708 809.088 97.4961 809.687 98.9805C810.285 100.465 811.171 101.624 812.343 102.457C813.528 103.29 814.986 103.707 816.718 103.707ZM851.073 109.605C848.118 109.605 845.572 108.974 843.437 107.711C841.314 106.435 839.674 104.645 838.515 102.34C837.369 100.022 836.796 97.3073 836.796 94.1953C836.796 91.1224 837.369 88.4141 838.515 86.0703C839.674 83.7266 841.288 81.8971 843.358 80.582C845.442 79.2669 847.877 78.6094 850.663 78.6094C852.356 78.6094 853.996 78.8893 855.585 79.4492C857.174 80.0091 858.599 80.888 859.862 82.0859C861.125 83.2839 862.121 84.8398 862.851 86.7539C863.58 88.6549 863.944 90.9661 863.944 93.6875V95.7578H840.097V91.3828H858.222C858.222 89.8464 857.909 88.4857 857.284 87.3008C856.659 86.1029 855.78 85.1589 854.647 84.4687C853.528 83.7786 852.213 83.4336 850.702 83.4336C849.062 83.4336 847.629 83.8372 846.405 84.6445C845.194 85.4388 844.257 86.4805 843.593 87.7695C842.942 89.0456 842.616 90.4323 842.616 91.9297V95.3477C842.616 97.3529 842.968 99.0586 843.671 100.465C844.387 101.871 845.383 102.945 846.659 103.687C847.935 104.417 849.426 104.781 851.132 104.781C852.239 104.781 853.248 104.625 854.159 104.312C855.071 103.987 855.858 103.505 856.522 102.867C857.187 102.229 857.694 101.441 858.046 100.504L863.573 101.5C863.131 103.128 862.336 104.553 861.19 105.777C860.058 106.988 858.632 107.932 856.913 108.609C855.207 109.273 853.261 109.605 851.073 109.605ZM23.9297 163.559V146H29.7891V176H24.0469V170.805H23.7344C23.0443 172.406 21.9375 173.741 20.4141 174.809C18.9036 175.863 17.0221 176.391 14.7695 176.391C12.8424 176.391 11.1367 175.967 9.65234 175.121C8.18099 174.262 7.02214 172.992 6.17578 171.312C5.34245 169.633 4.92578 167.556 4.92578 165.082V146H10.7656V164.379C10.7656 166.423 11.332 168.051 12.4648 169.262C13.5977 170.473 15.069 171.078 16.8789 171.078C17.9727 171.078 19.0599 170.805 20.1406 170.258C21.2344 169.711 22.1393 168.884 22.8555 167.777C23.5846 166.671 23.9427 165.264 23.9297 163.559ZM60.1162 153.324L54.8232 154.262C54.6019 153.585 54.2503 152.94 53.7686 152.328C53.2998 151.716 52.6618 151.215 51.8545 150.824C51.0472 150.434 50.0381 150.238 48.8271 150.238C47.1735 150.238 45.7933 150.609 44.6865 151.352C43.5798 152.081 43.0264 153.025 43.0264 154.184C43.0264 155.186 43.3975 155.993 44.1396 156.605C44.8818 157.217 46.0798 157.719 47.7334 158.109L52.499 159.203C55.2594 159.841 57.3167 160.824 58.6709 162.152C60.0251 163.48 60.7021 165.206 60.7021 167.328C60.7021 169.125 60.1813 170.727 59.1396 172.133C58.111 173.526 56.6722 174.62 54.8232 175.414C52.9873 176.208 50.8584 176.605 48.4365 176.605C45.0771 176.605 42.3363 175.889 40.2139 174.457C38.0915 173.012 36.7894 170.961 36.3076 168.305L41.9521 167.445C42.3037 168.917 43.0264 170.03 44.1201 170.785C45.2139 171.527 46.6396 171.898 48.3975 171.898C50.3115 171.898 51.8415 171.501 52.9873 170.707C54.1331 169.9 54.7061 168.917 54.7061 167.758C54.7061 166.82 54.3545 166.033 53.6514 165.395C52.9613 164.757 51.9001 164.275 50.4678 163.949L45.3896 162.836C42.5902 162.198 40.5199 161.182 39.1787 159.789C37.8506 158.396 37.1865 156.632 37.1865 154.496C37.1865 152.725 37.6813 151.176 38.6709 149.848C39.6605 148.52 41.0277 147.484 42.7725 146.742C44.5173 145.987 46.516 145.609 48.7686 145.609C52.0107 145.609 54.5628 146.312 56.4248 147.719C58.2868 149.112 59.5173 150.98 60.1162 153.324ZM67.123 176V146H72.9629V176H67.123ZM70.0723 141.371C69.0566 141.371 68.1842 141.033 67.4551 140.355C66.7389 139.665 66.3809 138.845 66.3809 137.895C66.3809 136.931 66.7389 136.111 67.4551 135.434C68.1842 134.743 69.0566 134.398 70.0723 134.398C71.0879 134.398 71.9538 134.743 72.6699 135.434C73.3991 136.111 73.7637 136.931 73.7637 137.895C73.7637 138.845 73.3991 139.665 72.6699 140.355C71.9538 141.033 71.0879 141.371 70.0723 141.371ZM86.6592 158.187V176H80.8193V146H86.4248V150.883H86.7959C87.486 149.294 88.5667 148.018 90.0381 147.055C91.5225 146.091 93.391 145.609 95.6436 145.609C97.6878 145.609 99.4782 146.039 101.015 146.898C102.551 147.745 103.743 149.008 104.589 150.687C105.435 152.367 105.858 154.444 105.858 156.918V176H100.019V157.621C100.019 155.447 99.4521 153.747 98.3193 152.523C97.1865 151.286 95.6305 150.668 93.6514 150.668C92.2972 150.668 91.0928 150.961 90.0381 151.547C88.9964 152.133 88.1696 152.992 87.5576 154.125C86.9587 155.245 86.6592 156.599 86.6592 158.187ZM126.269 187.875C123.886 187.875 121.835 187.563 120.116 186.938C118.41 186.313 117.017 185.486 115.937 184.457C114.856 183.428 114.049 182.302 113.515 181.078L118.534 179.008C118.886 179.581 119.354 180.186 119.94 180.824C120.539 181.475 121.347 182.029 122.362 182.484C123.391 182.94 124.713 183.168 126.327 183.168C128.541 183.168 130.37 182.628 131.815 181.547C133.261 180.479 133.983 178.773 133.983 176.43V170.531H133.612C133.261 171.169 132.753 171.879 132.089 172.66C131.438 173.441 130.539 174.118 129.394 174.691C128.248 175.264 126.757 175.551 124.921 175.551C122.551 175.551 120.416 174.997 118.515 173.891C116.627 172.771 115.129 171.124 114.022 168.949C112.929 166.762 112.382 164.073 112.382 160.883C112.382 157.693 112.922 154.958 114.003 152.68C115.097 150.401 116.594 148.656 118.495 147.445C120.396 146.221 122.551 145.609 124.96 145.609C126.822 145.609 128.326 145.922 129.472 146.547C130.618 147.159 131.509 147.875 132.147 148.695C132.799 149.516 133.3 150.238 133.651 150.863H134.081V146H139.804V176.664C139.804 179.242 139.205 181.358 138.007 183.012C136.809 184.665 135.188 185.889 133.144 186.684C131.112 187.478 128.821 187.875 126.269 187.875ZM126.21 170.707C127.89 170.707 129.309 170.316 130.468 169.535C131.64 168.741 132.525 167.608 133.124 166.137C133.736 164.652 134.042 162.875 134.042 160.805C134.042 158.786 133.743 157.009 133.144 155.473C132.545 153.936 131.666 152.738 130.507 151.879C129.348 151.007 127.916 150.57 126.21 150.57C124.452 150.57 122.987 151.026 121.815 151.938C120.644 152.836 119.758 154.06 119.159 155.609C118.573 157.159 118.28 158.891 118.28 160.805C118.28 162.771 118.58 164.496 119.179 165.98C119.778 167.465 120.663 168.624 121.835 169.457C123.02 170.29 124.478 170.707 126.21 170.707ZM176.195 146V150.687H159.809V146H176.195ZM164.203 138.812H170.043V167.191C170.043 168.324 170.212 169.177 170.551 169.75C170.889 170.31 171.326 170.694 171.859 170.902C172.406 171.098 172.999 171.195 173.637 171.195C174.105 171.195 174.516 171.163 174.867 171.098C175.219 171.033 175.492 170.98 175.688 170.941L176.742 175.766C176.404 175.896 175.922 176.026 175.297 176.156C174.672 176.299 173.891 176.378 172.953 176.391C171.417 176.417 169.984 176.143 168.656 175.57C167.328 174.997 166.254 174.112 165.434 172.914C164.613 171.716 164.203 170.212 164.203 168.402V138.812ZM189.14 158.187V176H183.3V136H189.062V150.883H189.433C190.136 149.268 191.21 147.986 192.655 147.035C194.101 146.085 195.989 145.609 198.319 145.609C200.377 145.609 202.174 146.033 203.71 146.879C205.259 147.725 206.457 148.988 207.304 150.668C208.163 152.335 208.593 154.418 208.593 156.918V176H202.753V157.621C202.753 155.421 202.187 153.715 201.054 152.504C199.921 151.28 198.345 150.668 196.327 150.668C194.947 150.668 193.71 150.961 192.616 151.547C191.535 152.133 190.683 152.992 190.058 154.125C189.446 155.245 189.14 156.599 189.14 158.187ZM229.315 176.605C226.36 176.605 223.814 175.974 221.679 174.711C219.556 173.435 217.916 171.645 216.757 169.34C215.611 167.022 215.038 164.307 215.038 161.195C215.038 158.122 215.611 155.414 216.757 153.07C217.916 150.727 219.53 148.897 221.601 147.582C223.684 146.267 226.119 145.609 228.905 145.609C230.598 145.609 232.239 145.889 233.827 146.449C235.416 147.009 236.841 147.888 238.104 149.086C239.368 150.284 240.364 151.84 241.093 153.754C241.822 155.655 242.187 157.966 242.187 160.687V162.758H218.339V158.383H236.464C236.464 156.846 236.151 155.486 235.526 154.301C234.901 153.103 234.022 152.159 232.89 151.469C231.77 150.779 230.455 150.434 228.944 150.434C227.304 150.434 225.871 150.837 224.647 151.645C223.437 152.439 222.499 153.48 221.835 154.77C221.184 156.046 220.858 157.432 220.858 158.93V162.348C220.858 164.353 221.21 166.059 221.913 167.465C222.629 168.871 223.625 169.945 224.901 170.687C226.177 171.417 227.668 171.781 229.374 171.781C230.481 171.781 231.49 171.625 232.401 171.312C233.313 170.987 234.101 170.505 234.765 169.867C235.429 169.229 235.937 168.441 236.288 167.504L241.815 168.5C241.373 170.128 240.578 171.553 239.433 172.777C238.3 173.988 236.874 174.932 235.155 175.609C233.45 176.273 231.503 176.605 229.315 176.605ZM275.858 176.605C272.955 176.605 270.455 175.948 268.358 174.633C266.275 173.305 264.674 171.475 263.554 169.145C262.434 166.814 261.874 164.145 261.874 161.137C261.874 158.09 262.447 155.401 263.593 153.07C264.739 150.727 266.353 148.897 268.437 147.582C270.52 146.267 272.974 145.609 275.8 145.609C278.078 145.609 280.11 146.033 281.894 146.879C283.677 147.712 285.116 148.884 286.21 150.395C287.317 151.905 287.974 153.669 288.183 155.687H282.499C282.187 154.281 281.47 153.07 280.351 152.055C279.244 151.039 277.759 150.531 275.897 150.531C274.27 150.531 272.844 150.961 271.62 151.82C270.409 152.667 269.465 153.878 268.788 155.453C268.111 157.016 267.772 158.865 267.772 161C267.772 163.187 268.104 165.076 268.769 166.664C269.433 168.253 270.37 169.483 271.581 170.355C272.805 171.228 274.244 171.664 275.897 171.664C277.004 171.664 278.007 171.462 278.905 171.059C279.817 170.642 280.578 170.049 281.19 169.281C281.815 168.513 282.252 167.589 282.499 166.508H288.183C287.974 168.448 287.343 170.18 286.288 171.703C285.233 173.227 283.821 174.424 282.05 175.297C280.292 176.169 278.228 176.605 275.858 176.605ZM307.064 176.605C304.252 176.605 301.798 175.961 299.701 174.672C297.605 173.383 295.977 171.579 294.818 169.262C293.66 166.944 293.08 164.236 293.08 161.137C293.08 158.025 293.66 155.303 294.818 152.973C295.977 150.642 297.605 148.832 299.701 147.543C301.798 146.254 304.252 145.609 307.064 145.609C309.877 145.609 312.331 146.254 314.428 147.543C316.524 148.832 318.152 150.642 319.311 152.973C320.469 155.303 321.049 158.025 321.049 161.137C321.049 164.236 320.469 166.944 319.311 169.262C318.152 171.579 316.524 173.383 314.428 174.672C312.331 175.961 309.877 176.605 307.064 176.605ZM307.084 171.703C308.907 171.703 310.417 171.221 311.615 170.258C312.813 169.294 313.699 168.012 314.271 166.41C314.857 164.809 315.15 163.044 315.15 161.117C315.15 159.203 314.857 157.445 314.271 155.844C313.699 154.229 312.813 152.934 311.615 151.957C310.417 150.98 308.907 150.492 307.084 150.492C305.248 150.492 303.725 150.98 302.514 151.957C301.316 152.934 300.424 154.229 299.838 155.844C299.265 157.445 298.979 159.203 298.979 161.117C298.979 163.044 299.265 164.809 299.838 166.41C300.424 168.012 301.316 169.294 302.514 170.258C303.725 171.221 305.248 171.703 307.084 171.703ZM333.407 158.187V176H327.567V146H333.173V150.883H333.544C334.234 149.294 335.315 148.018 336.786 147.055C338.271 146.091 340.139 145.609 342.392 145.609C344.436 145.609 346.226 146.039 347.763 146.898C349.299 147.745 350.491 149.008 351.337 150.687C352.183 152.367 352.606 154.444 352.606 156.918V176H346.767V157.621C346.767 155.447 346.2 153.747 345.067 152.523C343.935 151.286 342.379 150.668 340.399 150.668C339.045 150.668 337.841 150.961 336.786 151.547C335.744 152.133 334.918 152.992 334.306 154.125C333.707 155.245 333.407 156.599 333.407 158.187ZM374.442 146V150.687H358.056V146H374.442ZM362.45 138.812H368.29V167.191C368.29 168.324 368.459 169.177 368.798 169.75C369.136 170.31 369.573 170.694 370.106 170.902C370.653 171.098 371.246 171.195 371.884 171.195C372.353 171.195 372.763 171.163 373.114 171.098C373.466 171.033 373.739 170.98 373.935 170.941L374.989 175.766C374.651 175.896 374.169 176.026 373.544 176.156C372.919 176.299 372.138 176.378 371.2 176.391C369.664 176.417 368.231 176.143 366.903 175.57C365.575 174.997 364.501 174.112 363.681 172.914C362.86 171.716 362.45 170.212 362.45 168.402V138.812ZM389.633 176.664C387.732 176.664 386.013 176.313 384.477 175.609C382.94 174.893 381.723 173.858 380.824 172.504C379.939 171.15 379.496 169.49 379.496 167.523C379.496 165.831 379.822 164.437 380.473 163.344C381.124 162.25 382.003 161.384 383.109 160.746C384.216 160.108 385.453 159.626 386.82 159.301C388.188 158.975 389.581 158.728 391 158.559C392.797 158.35 394.255 158.181 395.375 158.051C396.495 157.908 397.309 157.68 397.816 157.367C398.324 157.055 398.578 156.547 398.578 155.844V155.707C398.578 154.001 398.096 152.68 397.133 151.742C396.182 150.805 394.763 150.336 392.875 150.336C390.909 150.336 389.359 150.772 388.227 151.645C387.107 152.504 386.332 153.461 385.902 154.516L380.414 153.266C381.065 151.443 382.016 149.971 383.266 148.852C384.529 147.719 385.98 146.898 387.621 146.391C389.262 145.87 390.987 145.609 392.797 145.609C393.995 145.609 395.264 145.753 396.605 146.039C397.96 146.312 399.223 146.82 400.395 147.562C401.579 148.305 402.549 149.366 403.305 150.746C404.06 152.113 404.438 153.891 404.438 156.078V176H398.734V171.898H398.5C398.122 172.654 397.556 173.396 396.801 174.125C396.046 174.854 395.076 175.46 393.891 175.941C392.706 176.423 391.286 176.664 389.633 176.664ZM390.902 171.977C392.517 171.977 393.897 171.658 395.043 171.02C396.202 170.382 397.081 169.548 397.68 168.52C398.292 167.478 398.598 166.365 398.598 165.18V161.312C398.389 161.521 397.986 161.716 397.387 161.898C396.801 162.068 396.13 162.217 395.375 162.348C394.62 162.465 393.884 162.576 393.168 162.68C392.452 162.771 391.853 162.849 391.371 162.914C390.238 163.057 389.203 163.298 388.266 163.637C387.341 163.975 386.599 164.464 386.039 165.102C385.492 165.727 385.219 166.56 385.219 167.602C385.219 169.047 385.753 170.141 386.82 170.883C387.888 171.612 389.249 171.977 390.902 171.977ZM424.853 176.605C421.949 176.605 419.449 175.948 417.353 174.633C415.269 173.305 413.668 171.475 412.548 169.145C411.428 166.814 410.868 164.145 410.868 161.137C410.868 158.09 411.441 155.401 412.587 153.07C413.733 150.727 415.347 148.897 417.431 147.582C419.514 146.267 421.968 145.609 424.794 145.609C427.073 145.609 429.104 146.033 430.888 146.879C432.672 147.712 434.11 148.884 435.204 150.395C436.311 151.905 436.968 153.669 437.177 155.687H431.493C431.181 154.281 430.465 153.07 429.345 152.055C428.238 151.039 426.754 150.531 424.892 150.531C423.264 150.531 421.838 150.961 420.614 151.82C419.403 152.667 418.459 153.878 417.782 155.453C417.105 157.016 416.767 158.865 416.767 161C416.767 163.187 417.099 165.076 417.763 166.664C418.427 168.253 419.364 169.483 420.575 170.355C421.799 171.228 423.238 171.664 424.892 171.664C425.998 171.664 427.001 171.462 427.899 171.059C428.811 170.642 429.573 170.049 430.185 169.281C430.81 168.513 431.246 167.589 431.493 166.508H437.177C436.968 168.448 436.337 170.18 435.282 171.703C434.228 173.227 432.815 174.424 431.044 175.297C429.286 176.169 427.222 176.605 424.853 176.605ZM457.426 146V150.687H441.039V146H457.426ZM445.434 138.812H451.273V167.191C451.273 168.324 451.443 169.177 451.781 169.75C452.12 170.31 452.556 170.694 453.09 170.902C453.637 171.098 454.229 171.195 454.867 171.195C455.336 171.195 455.746 171.163 456.098 171.098C456.449 171.033 456.723 170.98 456.918 170.941L457.973 175.766C457.634 175.896 457.152 176.026 456.527 176.156C455.902 176.299 455.121 176.378 454.184 176.391C452.647 176.417 451.215 176.143 449.887 175.57C448.559 174.997 447.484 174.112 446.664 172.914C445.844 171.716 445.434 170.212 445.434 168.402V138.812ZM492.719 146V150.687H475.766V146H492.719ZM480.414 176V142.523C480.414 140.648 480.824 139.092 481.645 137.855C482.465 136.605 483.552 135.674 484.906 135.062C486.26 134.437 487.732 134.125 489.32 134.125C490.492 134.125 491.495 134.223 492.328 134.418C493.161 134.6 493.78 134.77 494.184 134.926L492.816 139.652C492.543 139.574 492.191 139.483 491.762 139.379C491.332 139.262 490.811 139.203 490.199 139.203C488.78 139.203 487.764 139.555 487.152 140.258C486.553 140.961 486.254 141.977 486.254 143.305V176H480.414ZM510.199 176.605C507.387 176.605 504.932 175.961 502.836 174.672C500.74 173.383 499.112 171.579 497.953 169.262C496.794 166.944 496.215 164.236 496.215 161.137C496.215 158.025 496.794 155.303 497.953 152.973C499.112 150.642 500.74 148.832 502.836 147.543C504.932 146.254 507.387 145.609 510.199 145.609C513.012 145.609 515.466 146.254 517.563 147.543C519.659 148.832 521.286 150.642 522.445 152.973C523.604 155.303 524.184 158.025 524.184 161.137C524.184 164.236 523.604 166.944 522.445 169.262C521.286 171.579 519.659 173.383 517.563 174.672C515.466 175.961 513.012 176.605 510.199 176.605ZM510.219 171.703C512.042 171.703 513.552 171.221 514.75 170.258C515.948 169.294 516.833 168.012 517.406 166.41C517.992 164.809 518.285 163.044 518.285 161.117C518.285 159.203 517.992 157.445 517.406 155.844C516.833 154.229 515.948 152.934 514.75 151.957C513.552 150.98 512.042 150.492 510.219 150.492C508.383 150.492 506.859 150.98 505.648 151.957C504.451 152.934 503.559 154.229 502.973 155.844C502.4 157.445 502.113 159.203 502.113 161.117C502.113 163.044 502.4 164.809 502.973 166.41C503.559 168.012 504.451 169.294 505.648 170.258C506.859 171.221 508.383 171.703 510.219 171.703ZM530.702 176V146H536.347V150.766H536.659C537.206 149.151 538.17 147.882 539.55 146.957C540.943 146.02 542.519 145.551 544.276 145.551C544.641 145.551 545.071 145.564 545.565 145.59C546.073 145.616 546.47 145.648 546.757 145.687V151.273C546.522 151.208 546.106 151.137 545.507 151.059C544.908 150.967 544.309 150.922 543.71 150.922C542.33 150.922 541.099 151.215 540.019 151.801C538.951 152.374 538.104 153.174 537.479 154.203C536.854 155.219 536.542 156.378 536.542 157.68V176H530.702ZM551.811 176V146H557.416V150.883H557.787C558.412 149.229 559.434 147.94 560.854 147.016C562.273 146.078 563.972 145.609 565.951 145.609C567.956 145.609 569.636 146.078 570.99 147.016C572.357 147.953 573.367 149.242 574.018 150.883H574.33C575.046 149.281 576.186 148.005 577.748 147.055C579.311 146.091 581.173 145.609 583.334 145.609C586.055 145.609 588.275 146.462 589.994 148.168C591.726 149.874 592.592 152.445 592.592 155.883V176H586.752V156.43C586.752 154.398 586.199 152.927 585.092 152.016C583.985 151.104 582.663 150.648 581.127 150.648C579.226 150.648 577.748 151.234 576.693 152.406C575.639 153.565 575.111 155.056 575.111 156.879V176H569.291V156.059C569.291 154.431 568.783 153.122 567.768 152.133C566.752 151.143 565.43 150.648 563.803 150.648C562.696 150.648 561.674 150.941 560.736 151.527C559.812 152.1 559.063 152.901 558.49 153.93C557.93 154.958 557.65 156.15 557.65 157.504V176H551.811ZM615.443 176V136H621.283V150.863H621.635C621.973 150.238 622.462 149.516 623.1 148.695C623.738 147.875 624.623 147.159 625.756 146.547C626.889 145.922 628.386 145.609 630.248 145.609C632.67 145.609 634.831 146.221 636.732 147.445C638.633 148.669 640.124 150.434 641.205 152.738C642.299 155.043 642.846 157.816 642.846 161.059C642.846 164.301 642.305 167.081 641.225 169.398C640.144 171.703 638.66 173.48 636.771 174.73C634.883 175.967 632.729 176.586 630.307 176.586C628.484 176.586 626.993 176.28 625.834 175.668C624.688 175.056 623.79 174.34 623.139 173.52C622.488 172.699 621.986 171.97 621.635 171.332H621.146V176H615.443ZM621.166 161C621.166 163.109 621.472 164.958 622.084 166.547C622.696 168.135 623.581 169.379 624.74 170.277C625.899 171.163 627.318 171.605 628.998 171.605C630.743 171.605 632.201 171.143 633.373 170.219C634.545 169.281 635.43 168.012 636.029 166.41C636.641 164.809 636.947 163.005 636.947 161C636.947 159.021 636.648 157.243 636.049 155.668C635.463 154.092 634.577 152.849 633.393 151.938C632.221 151.026 630.756 150.57 628.998 150.57C627.305 150.57 625.873 151.007 624.701 151.879C623.542 152.751 622.663 153.969 622.064 155.531C621.465 157.094 621.166 158.917 621.166 161ZM662.333 176.605C659.377 176.605 656.832 175.974 654.696 174.711C652.574 173.435 650.933 171.645 649.774 169.34C648.629 167.022 648.056 164.307 648.056 161.195C648.056 158.122 648.629 155.414 649.774 153.07C650.933 150.727 652.548 148.897 654.618 147.582C656.701 146.267 659.136 145.609 661.923 145.609C663.616 145.609 665.256 145.889 666.845 146.449C668.433 147.009 669.859 147.888 671.122 149.086C672.385 150.284 673.381 151.84 674.11 153.754C674.84 155.655 675.204 157.966 675.204 160.687V162.758H651.356V158.383H669.481C669.481 156.846 669.169 155.486 668.544 154.301C667.919 153.103 667.04 152.159 665.907 151.469C664.787 150.779 663.472 150.434 661.962 150.434C660.321 150.434 658.889 150.837 657.665 151.645C656.454 152.439 655.517 153.48 654.853 154.77C654.201 156.046 653.876 157.432 653.876 158.93V162.348C653.876 164.353 654.228 166.059 654.931 167.465C655.647 168.871 656.643 169.945 657.919 170.687C659.195 171.417 660.686 171.781 662.392 171.781C663.498 171.781 664.507 171.625 665.419 171.312C666.33 170.987 667.118 170.505 667.782 169.867C668.446 169.229 668.954 168.441 669.306 167.504L674.833 168.5C674.39 170.128 673.596 171.553 672.45 172.777C671.317 173.988 669.892 174.932 668.173 175.609C666.467 176.273 664.521 176.605 662.333 176.605ZM687.523 136V176H681.684V136H687.523ZM708.017 176.605C705.204 176.605 702.75 175.961 700.653 174.672C698.557 173.383 696.929 171.579 695.771 169.262C694.612 166.944 694.032 164.236 694.032 161.137C694.032 158.025 694.612 155.303 695.771 152.973C696.929 150.642 698.557 148.832 700.653 147.543C702.75 146.254 705.204 145.609 708.017 145.609C710.829 145.609 713.284 146.254 715.38 147.543C717.476 148.832 719.104 150.642 720.263 152.973C721.422 155.303 722.001 158.025 722.001 161.137C722.001 164.236 721.422 166.944 720.263 169.262C719.104 171.579 717.476 173.383 715.38 174.672C713.284 175.961 710.829 176.605 708.017 176.605ZM708.036 171.703C709.859 171.703 711.369 171.221 712.567 170.258C713.765 169.294 714.651 168.012 715.224 166.41C715.81 164.809 716.103 163.044 716.103 161.117C716.103 159.203 715.81 157.445 715.224 155.844C714.651 154.229 713.765 152.934 712.567 151.957C711.369 150.98 709.859 150.492 708.036 150.492C706.2 150.492 704.677 150.98 703.466 151.957C702.268 152.934 701.376 154.229 700.79 155.844C700.217 157.445 699.931 159.203 699.931 161.117C699.931 163.044 700.217 164.809 700.79 166.41C701.376 168.012 702.268 169.294 703.466 170.258C704.677 171.221 706.2 171.703 708.036 171.703ZM734.11 176L725.282 146H731.317L737.196 168.031H737.489L743.388 146H749.423L755.282 167.934H755.575L761.415 146H767.45L758.642 176H752.685L746.591 154.34H746.142L740.048 176H734.11ZM801.825 146V150.687H784.872V146H801.825ZM789.521 176V142.523C789.521 140.648 789.931 139.092 790.751 137.855C791.571 136.605 792.659 135.674 794.013 135.062C795.367 134.437 796.838 134.125 798.427 134.125C799.599 134.125 800.601 134.223 801.435 134.418C802.268 134.6 802.886 134.77 803.29 134.926L801.923 139.652C801.649 139.574 801.298 139.483 800.868 139.379C800.438 139.262 799.918 139.203 799.306 139.203C797.886 139.203 796.871 139.555 796.259 140.258C795.66 140.961 795.36 141.977 795.36 143.305V176H789.521ZM819.306 176.605C816.493 176.605 814.039 175.961 811.942 174.672C809.846 173.383 808.218 171.579 807.06 169.262C805.901 166.944 805.321 164.236 805.321 161.137C805.321 158.025 805.901 155.303 807.06 152.973C808.218 150.642 809.846 148.832 811.942 147.543C814.039 146.254 816.493 145.609 819.306 145.609C822.118 145.609 824.573 146.254 826.669 147.543C828.765 148.832 830.393 150.642 831.552 152.973C832.711 155.303 833.29 158.025 833.29 161.137C833.29 164.236 832.711 166.944 831.552 169.262C830.393 171.579 828.765 173.383 826.669 174.672C824.573 175.961 822.118 176.605 819.306 176.605ZM819.325 171.703C821.148 171.703 822.659 171.221 823.856 170.258C825.054 169.294 825.94 168.012 826.513 166.41C827.099 164.809 827.392 163.044 827.392 161.117C827.392 159.203 827.099 157.445 826.513 155.844C825.94 154.229 825.054 152.934 823.856 151.957C822.659 150.98 821.148 150.492 819.325 150.492C817.489 150.492 815.966 150.98 814.755 151.957C813.557 152.934 812.665 154.229 812.079 155.844C811.506 157.445 811.22 159.203 811.22 161.117C811.22 163.044 811.506 164.809 812.079 166.41C812.665 168.012 813.557 169.294 814.755 170.258C815.966 171.221 817.489 171.703 819.325 171.703ZM839.809 176V146H845.453V150.766H845.766C846.313 149.151 847.276 147.882 848.656 146.957C850.049 146.02 851.625 145.551 853.383 145.551C853.747 145.551 854.177 145.564 854.672 145.59C855.18 145.616 855.577 145.648 855.863 145.687V151.273C855.629 151.208 855.212 151.137 854.613 151.059C854.014 150.967 853.415 150.922 852.816 150.922C851.436 150.922 850.206 151.215 849.125 151.801C848.057 152.374 847.211 153.174 846.586 154.203C845.961 155.219 845.648 156.378 845.648 157.68V176H839.809ZM4.92578 243V213H10.7656V243H4.92578ZM7.875 208.371C6.85938 208.371 5.98698 208.033 5.25781 207.355C4.54167 206.665 4.18359 205.845 4.18359 204.895C4.18359 203.931 4.54167 203.111 5.25781 202.434C5.98698 201.743 6.85938 201.398 7.875 201.398C8.89063 201.398 9.75651 201.743 10.4727 202.434C11.2018 203.111 11.5664 203.931 11.5664 204.895C11.5664 205.845 11.2018 206.665 10.4727 207.355C9.75651 208.033 8.89063 208.371 7.875 208.371ZM24.4619 225.187V243H18.6221V213H24.2275V217.883H24.5986C25.2887 216.294 26.3695 215.018 27.8408 214.055C29.3252 213.091 31.1937 212.609 33.4463 212.609C35.4906 212.609 37.2809 213.039 38.8174 213.898C40.3538 214.745 41.5452 216.008 42.3916 217.687C43.238 219.367 43.6611 221.444 43.6611 223.918V243H37.8213V224.621C37.8213 222.447 37.2549 220.747 36.1221 219.523C34.9893 218.286 33.4333 217.668 31.4541 217.668C30.0999 217.668 28.8955 217.961 27.8408 218.547C26.7992 219.133 25.9723 219.992 25.3604 221.125C24.7614 222.245 24.4619 223.599 24.4619 225.187ZM71.7471 254.25V238.332H71.3955C71.0439 238.97 70.5361 239.699 69.8721 240.52C69.221 241.34 68.3226 242.056 67.1768 242.668C66.0309 243.28 64.5465 243.586 62.7236 243.586C60.3018 243.586 58.1403 242.967 56.2393 241.73C54.3512 240.48 52.8669 238.703 51.7861 236.398C50.7184 234.081 50.1846 231.301 50.1846 228.059C50.1846 224.816 50.7249 222.043 51.8057 219.738C52.8994 217.434 54.3968 215.669 56.2979 214.445C58.1989 213.221 60.3538 212.609 62.7627 212.609C64.6247 212.609 66.1221 212.922 67.2549 213.547C68.4007 214.159 69.2861 214.875 69.9111 215.695C70.5492 216.516 71.0439 217.238 71.3955 217.863H71.8838V213H77.5869V254.25H71.7471ZM64.0127 238.605C65.6924 238.605 67.1117 238.163 68.2705 237.277C69.4424 236.379 70.3278 235.135 70.9268 233.547C71.5387 231.958 71.8447 230.109 71.8447 228C71.8447 225.917 71.5452 224.094 70.9463 222.531C70.3473 220.969 69.4684 219.751 68.3096 218.879C67.1507 218.007 65.7184 217.57 64.0127 217.57C62.2549 217.57 60.79 218.026 59.6182 218.938C58.4463 219.849 57.5609 221.092 56.9619 222.668C56.376 224.243 56.083 226.021 56.083 228C56.083 230.005 56.3825 231.809 56.9814 233.41C57.5804 235.012 58.4658 236.281 59.6377 237.219C60.8226 238.143 62.2809 238.605 64.0127 238.605ZM104.442 230.559V213H110.302V243H104.56V237.805H104.247C103.557 239.406 102.45 240.741 100.927 241.809C99.4163 242.863 97.5348 243.391 95.2822 243.391C93.3551 243.391 91.6494 242.967 90.165 242.121C88.6937 241.262 87.5348 239.992 86.6885 238.312C85.8551 236.633 85.4385 234.556 85.4385 232.082V213H91.2783V231.379C91.2783 233.423 91.8447 235.051 92.9775 236.262C94.1104 237.473 95.5817 238.078 97.3916 238.078C98.4854 238.078 99.5726 237.805 100.653 237.258C101.747 236.711 102.652 235.884 103.368 234.777C104.097 233.671 104.455 232.264 104.442 230.559ZM118.148 243V213H123.988V243H118.148ZM121.098 208.371C120.082 208.371 119.21 208.033 118.48 207.355C117.764 206.665 117.406 205.845 117.406 204.895C117.406 203.931 117.764 203.111 118.48 202.434C119.21 201.743 120.082 201.398 121.098 201.398C122.113 201.398 122.979 201.743 123.695 202.434C124.424 203.111 124.789 203.931 124.789 204.895C124.789 205.845 124.424 206.665 123.695 207.355C122.979 208.033 122.113 208.371 121.098 208.371ZM131.845 243V213H137.489V217.766H137.802C138.349 216.151 139.312 214.882 140.692 213.957C142.086 213.02 143.661 212.551 145.419 212.551C145.784 212.551 146.213 212.564 146.708 212.59C147.216 212.616 147.613 212.648 147.899 212.687V218.273C147.665 218.208 147.248 218.137 146.649 218.059C146.05 217.967 145.451 217.922 144.853 217.922C143.472 217.922 142.242 218.215 141.161 218.801C140.093 219.374 139.247 220.174 138.622 221.203C137.997 222.219 137.685 223.378 137.685 224.68V243H131.845ZM164.809 243.605C161.853 243.605 159.307 242.974 157.172 241.711C155.049 240.435 153.409 238.645 152.25 236.34C151.104 234.022 150.531 231.307 150.531 228.195C150.531 225.122 151.104 222.414 152.25 220.07C153.409 217.727 155.023 215.897 157.094 214.582C159.177 213.267 161.612 212.609 164.398 212.609C166.091 212.609 167.732 212.889 169.32 213.449C170.909 214.009 172.335 214.888 173.598 216.086C174.861 217.284 175.857 218.84 176.586 220.754C177.315 222.655 177.68 224.966 177.68 227.687V229.758H153.832V225.383H171.957C171.957 223.846 171.645 222.486 171.02 221.301C170.395 220.103 169.516 219.159 168.383 218.469C167.263 217.779 165.948 217.434 164.437 217.434C162.797 217.434 161.365 217.837 160.141 218.645C158.93 219.439 157.992 220.48 157.328 221.77C156.677 223.046 156.352 224.432 156.352 225.93V229.348C156.352 231.353 156.703 233.059 157.406 234.465C158.122 235.871 159.118 236.945 160.395 237.687C161.671 238.417 163.161 238.781 164.867 238.781C165.974 238.781 166.983 238.625 167.895 238.312C168.806 237.987 169.594 237.505 170.258 236.867C170.922 236.229 171.43 235.441 171.781 234.504L177.309 235.5C176.866 237.128 176.072 238.553 174.926 239.777C173.793 240.988 172.367 241.932 170.648 242.609C168.943 243.273 166.996 243.605 164.809 243.605ZM206.64 220.324L201.347 221.262C201.125 220.585 200.774 219.94 200.292 219.328C199.823 218.716 199.185 218.215 198.378 217.824C197.571 217.434 196.562 217.238 195.351 217.238C193.697 217.238 192.317 217.609 191.21 218.352C190.103 219.081 189.55 220.025 189.55 221.184C189.55 222.186 189.921 222.993 190.663 223.605C191.405 224.217 192.603 224.719 194.257 225.109L199.022 226.203C201.783 226.841 203.84 227.824 205.194 229.152C206.549 230.48 207.226 232.206 207.226 234.328C207.226 236.125 206.705 237.727 205.663 239.133C204.634 240.526 203.196 241.62 201.347 242.414C199.511 243.208 197.382 243.605 194.96 243.605C191.601 243.605 188.86 242.889 186.737 241.457C184.615 240.012 183.313 237.961 182.831 235.305L188.476 234.445C188.827 235.917 189.55 237.03 190.644 237.785C191.737 238.527 193.163 238.898 194.921 238.898C196.835 238.898 198.365 238.501 199.511 237.707C200.657 236.9 201.229 235.917 201.229 234.758C201.229 233.82 200.878 233.033 200.175 232.395C199.485 231.757 198.424 231.275 196.991 230.949L191.913 229.836C189.114 229.198 187.043 228.182 185.702 226.789C184.374 225.396 183.71 223.632 183.71 221.496C183.71 219.725 184.205 218.176 185.194 216.848C186.184 215.52 187.551 214.484 189.296 213.742C191.041 212.987 193.039 212.609 195.292 212.609C198.534 212.609 201.086 213.312 202.948 214.719C204.81 216.112 206.041 217.98 206.64 220.324ZM217.494 243.371C216.426 243.371 215.508 242.993 214.74 242.238C213.972 241.47 213.588 240.546 213.588 239.465C213.588 238.397 213.972 237.486 214.74 236.73C215.508 235.962 216.426 235.578 217.494 235.578C218.562 235.578 219.48 235.962 220.248 236.73C221.016 237.486 221.4 238.397 221.4 239.465C221.4 240.181 221.218 240.839 220.854 241.437C220.502 242.023 220.033 242.492 219.447 242.844C218.861 243.195 218.21 243.371 217.494 243.371Z" fill="#FF6666"/>
</g>
<defs>
<filter id="filter0_d_131_748" x="0.105469" y="0.125" width="867.839" height="262.125" filterUnits="userSpaceOnUse" color-interpolation-filters="sRGB">
<feFlood flood-opacity="0" result="BackgroundImageFix"/>
<feColorMatrix in="SourceAlpha" type="matrix" values="0 0 0 0 0 0 0 0 0 0 0 0 0 0 0 0 0 0 127 0" result="hardAlpha"/>
<feOffset dy="4"/>
<feGaussianBlur stdDeviation="2"/>
<feComposite in2="hardAlpha" operator="out"/>
<feColorMatrix type="matrix" values="0 0 0 0 0 0 0 0 0 0 0 0 0 0 0 0 0 0 0.25 0"/>
<feBlend mode="normal" in2="BackgroundImageFix" result="effect1_dropShadow_131_748"/>
<feBlend mode="normal" in="SourceGraphic" in2="effect1_dropShadow_131_748" result="shape"/>
</filter>
</defs>
</svg>
